<svg width="512" height="512" viewBox="0 0 512 512" fill="none" xmlns="http://www.w3.org/2000/svg">
<path d="M81.4619 187.378C102.646 171 129.338 163.866 155.249 157.107C168.571 153.632 181.893 150.157 195.215 146.682C204.099 144.365 213.022 142.04 222.148 141.037C232.498 139.899 242.953 140.477 253.345 141.135C314.598 145.014 378.048 152.378 430.325 184.536C431.011 166.83 431.696 149.125 432.382 131.42C394.83 117.121 357.279 102.823 319.728 88.5244C315.898 95.0366 311.722 101.883 304.996 105.324C298.081 108.861 289.291 107.959 282.843 103.626C276.396 99.2944 272.314 91.8601 271.42 84.144C254.937 86.2426 238.453 88.3412 221.969 90.4398C218.727 90.8526 215.344 91.3178 212.661 93.1843C210.152 94.93 208.571 97.6832 206.561 99.986C201.496 105.789 193.289 108.666 185.71 107.296C178.13 105.926 171.449 100.359 168.735 93.1508C170.78 98.5812 102.081 122.577 95.334 124.484C82.2854 128.173 72.762 126.11 74.6081 141.432C76.4579 156.784 79.1805 172.084 81.4619 187.378Z" fill="#FFCB05"/>
<path d="M177.797 101.205L177.115 102.722C176.963 101.698 177.381 101.432 177.797 101.205Z" fill="white"/>
<path d="M211.362 87.1341C210.868 88.6133 210.262 90.0545 209.618 91.4955C209.01 92.823 208.328 94.1503 207.569 95.4019C204.763 100.143 200.97 104.277 195.964 106.363C189.593 108.979 181.097 107.235 177.797 101.204C178.329 100.901 178.897 100.749 179.997 101.432C181.135 101.963 182.842 103.556 186.975 104.125C189.023 104.39 191.754 104.277 194.523 103.025C197.026 101.811 199.756 99.6496 202.222 96.2362C202.525 95.7811 202.867 95.326 203.17 94.833C204.421 92.861 205.597 90.5096 206.621 87.8927C207.759 84.9344 208.707 81.5969 209.352 77.9561C210.414 71.0156 210.338 62.7857 207.645 54.0626C206.204 49.3598 203.663 44.0124 200.06 39.3096C196.381 34.7205 190.995 30.5107 185.155 29.4867C179.314 28.3489 173.436 31.4209 169.871 37.1098C166.154 42.7228 164.523 49.8149 163.803 56.6038C162.4 70.295 165.737 82.8864 169.378 91.2679C170.06 92.785 170.706 94.1883 171.35 95.4399C172.602 97.9809 173.777 100.029 174.65 101.508C175.787 103.48 176.394 104.542 176.167 104.77C175.332 103.784 174.574 102.76 173.815 101.736C172.412 99.8392 171.084 97.8672 169.909 95.8191C161.717 81.7864 158.645 64.7957 161.679 48.8288C163.499 39.1957 168.543 28.9177 177.911 26.0355C188.493 22.7737 199.567 30.4728 205.673 39.6887C214.737 53.4559 216.823 71.5844 211.362 87.1341Z" fill="white"/>
<path d="M278.908 96.0469L277.884 97.3365C277.998 96.3503 278.453 96.1987 278.908 96.0469Z" fill="white"/>
<path d="M317.782 85.5415C316.341 88.4237 314.596 91.1545 312.624 93.6955C312.472 93.923 312.282 94.1126 312.131 94.3401C307.807 99.7258 302.081 104.429 295.292 105.453C288.465 106.476 280.653 102.722 278.908 96.0469C279.515 95.8952 280.083 95.8952 280.994 96.8054C281.942 97.6399 283.231 99.5739 287.1 101.129C289.034 101.888 291.727 102.418 294.685 101.85C297.795 101.243 301.436 99.4982 305.077 96.0089C305.987 95.1367 306.935 94.1506 307.845 93.0508C309.742 90.7751 311.638 88.0445 313.269 84.8966C313.951 83.7209 314.558 82.4316 315.127 81.142C317.858 74.6945 319.792 66.6543 319.261 57.5522C319.033 52.6216 317.858 46.8191 315.469 41.4337C313.003 36.048 308.831 30.6626 303.408 28.2353C298.023 25.7702 291.575 27.3251 286.72 31.9899C281.752 36.5031 278.491 42.9885 276.101 49.398C271.854 61.3068 271.626 73.2533 272.802 82.0901C272.916 82.8867 273.03 83.6452 273.144 84.3658C273.56 86.755 274.016 88.8788 274.47 90.7374C275.646 95.5158 276.746 98.4362 276.519 99.0052C276.519 99.0809 276.481 99.0809 276.443 99.1188C275.115 96.3883 274.016 93.5818 273.106 90.6994C272.157 87.855 271.437 84.9726 270.944 82.0522C268.44 68.3989 270.109 53.9492 275.95 41.3577C280.045 32.4452 287.441 23.6844 297.226 23.1533C308.3 22.5464 317.137 32.7105 320.854 43.1401C325.67 56.8695 324.419 72.5707 317.782 85.5415Z" fill="white"/>
<path d="M362.205 456.228C362.515 449.355 363.497 442.315 366.874 436.321C370.251 430.326 376.449 425.542 383.328 425.486C388.74 425.443 393.883 428.31 397.552 432.288C401.221 436.265 403.584 441.269 405.453 446.347C393.857 456.787 377.309 460.142 362.205 456.228Z" fill="#FFCB05"/>
<path d="M181.95 474.254C178.432 467.423 174.169 460.601 167.635 456.556C161.102 452.511 151.766 452.084 146.268 457.452C143.483 460.17 142.004 464.004 141.446 467.855C140.889 471.706 141.177 475.624 141.466 479.504C154.656 485.273 170.15 482.503 181.95 474.254Z" fill="#FFCB05"/>
<path d="M405.946 137.909C405.562 138.378 405.107 138.718 402.5 137.15C399.82 135.7 395.144 132.046 384.943 126.651C379.364 123.686 370.253 119.634 362.2 117.15C354.182 114.576 347.387 113.324 347.465 112.685C347.519 112.121 354.537 112.283 363 114.152C371.478 115.92 381.168 119.671 386.965 122.755C397.573 128.366 402.155 132.581 404.407 134.702C406.592 136.947 406.33 137.441 405.946 137.909Z" fill="white"/>
<path d="M396.574 143.731C395.984 144.79 395.362 145.568 388.552 141.769C384.82 139.687 377.29 134.362 377.881 133.303C378.471 132.245 386.959 135.854 390.69 137.936C397.501 141.735 397.165 142.672 396.574 143.731Z" fill="white"/>
<path d="M392.363 443.008C391.127 443.507 390.557 443.536 388.13 439.861C387.421 438.872 386.324 437.284 385.255 435.938C384.212 434.582 383.222 433.436 383.514 432.895C383.792 432.369 385.418 432.595 387.197 433.516C388.98 434.407 390.789 436.03 391.67 437.265C393.291 439.52 393.585 440.985 393.523 441.765C393.431 442.569 392.925 442.783 392.363 443.008Z" fill="white"/>
<path d="M74.9083 149.505C73.6287 140.704 72.5685 134.727 71.8926 132.806C72.3166 133.335 81.7907 129.753 97.0907 124.302C121.039 115.909 146.409 107.775 172.829 101.926C174.687 104.012 175.977 104.96 176.167 104.77C176.394 104.542 175.787 103.481 174.65 101.508C166.398 87.5152 162.179 72.4447 163.803 56.6043C164.523 49.8154 166.154 42.7233 169.871 37.1103C185.129 12.7635 221.55 49.0682 206.621 87.8932C205.597 90.5101 204.421 92.8615 203.17 94.8335C199.652 100.554 194.038 105.041 186.975 104.125C182.842 103.557 181.135 101.964 179.997 101.433C178.897 100.75 178.329 100.902 177.797 101.205C177.381 101.433 176.963 101.698 177.115 102.722C177.115 102.95 177.191 103.215 177.267 103.481C177.759 104.922 179.656 108.335 185.648 110.194C197.138 113.434 206.97 105.545 212.651 94.6818C236.381 91.2743 251.335 91.0127 271.664 90.6617C273.902 96.3885 276.101 99.3087 276.443 99.1191C276.481 99.0811 276.519 99.0811 276.519 99.0054C277.225 97.2394 266.596 76.0473 276.101 49.3983C278.491 42.9888 281.752 36.5034 286.72 31.9902C297.136 21.9821 309.403 28.1834 315.469 41.4339C328.642 71.1264 305.71 108.428 287.1 101.129C281.18 98.7497 281.244 95.4635 278.908 96.0471C277.914 96.3787 277.846 96.9883 277.846 98.133C278.578 107.923 299.964 118.561 317.327 94.3784C391.176 105.934 430.033 143.076 433.645 138.373C433.987 137.88 434.177 137.311 432.47 135.49C421.433 124.452 398.809 111.721 382.597 104.505C367.655 97.9814 347.971 90.6997 322.181 86.2624C325.456 80.5282 328.695 68.9277 328.022 57.0214C327.166 42.2948 320.241 26.5549 306.48 20.7642C302.308 19.0955 297.416 18.6784 292.979 19.9297C280.939 23.1948 273.941 35.4759 270.223 47.464C266.355 60.4726 266.999 73.026 269.047 82.0904C249.92 82.2858 232.818 83.8415 216.027 86.376C224.862 59.8612 210.86 25.3141 186.331 21.4848C181.893 20.8779 177.039 21.6365 173.018 23.9122C168.961 26.1876 165.889 29.6388 163.689 33.2418C159.29 40.5994 158 48.7536 157.621 56.1869C157 69.9036 160.7 84.5423 168.468 96.199C147.227 101.608 121.755 110.118 95.8773 121.116C80.9213 127.499 71.9592 132.108 71.8842 132.783C71.7324 132.357 71.5935 132.069 71.4838 132.08C69.5788 132.277 74.0601 180.881 79.3426 306.265C77.3768 302.115 74.1083 298.311 69.875 295.411C64.2526 291.491 58.2455 290.492 54.4629 285.849C53.8375 285.07 52.9435 284.409 52.4801 283.522C46.8005 274.246 49.3616 264.371 54.5958 255.747C62.8633 241.022 76.5031 229.74 75.5217 228.535C74.2461 226.946 24.7701 261.067 48.194 291.417C52.797 297.546 60.6064 299.53 64.9041 302.647C79.9201 312.952 71.0111 329.804 60.4254 324.268C56.9791 322.395 56.9973 320.492 54.8954 320.792C51.1009 321.334 54.2459 331.31 64.3486 332.642C70.3542 333.544 77.0205 329.77 80.0111 322.309C82.0214 371.067 82.4407 383.86 85.7018 383.82C86.9139 383.805 88.0041 383.315 88.6245 371.324C91.0356 317.133 83.4634 209.602 74.9083 149.505Z" fill="black"/>
<path d="M112.739 139.405C110.934 139.549 110.117 140.258 109.813 140.826C109.697 141.046 109.688 141.262 109.674 141.477C108.603 141.461 107.414 141.637 106.179 142.152C104.387 142.882 102.429 144.585 101.512 146.944C99.6625 151.547 101.428 157.758 106.77 160.413C109.374 161.653 112.137 161.679 114.396 161.108C116.689 160.559 118.599 159.405 120.022 158.026C122.709 155.566 123.784 151.721 123.309 148.809C122.83 145.889 121.479 143.86 120.123 142.502C117.339 139.776 114.493 139.283 112.739 139.405ZM113.913 151.721C113.197 152.54 111.2 153.372 109.986 152.991C108.759 152.89 107.181 150.618 107.437 148.795C107.443 147.067 109.396 145.439 111.078 145.034C111.118 145.021 111.15 145.021 111.189 145.01C111.38 145.187 111.574 145.363 111.811 145.543C112.378 146.029 113.252 146.642 114.068 147.866C114.477 148.459 114.724 149.222 114.771 149.849C114.731 150.459 114.668 150.974 113.913 151.721Z" fill="black"/>
<path d="M131.593 135.021C130.649 136.1 130.141 137.216 129.856 138.254C129.206 138.91 128.607 139.722 128.172 140.74C127.399 142.46 127.142 145.085 128.399 147.441C130.918 152.089 136.99 153.895 142.01 151.38C147.057 148.621 148.599 142.904 147.092 138.692C143.639 130.666 134.812 131.152 131.593 135.021ZM135.869 144.99C135.5 144.972 135.167 144.882 134.845 144.78C135.58 143.806 135.801 142.734 136.34 141.876C136.535 141.532 137.042 140.565 137.347 140.732C137.553 140.742 137.42 140.802 137.877 140.898C138.315 141.007 138.809 141.436 138.823 141.642C139.166 142.043 138.95 145.122 135.869 144.99Z" fill="black"/>
<path d="M159.849 125.889C158.958 126.254 158.205 126.765 157.546 127.342C157.318 127.382 157.097 127.367 156.868 127.434C154.285 128.108 152.132 131.093 151.872 133.896C151.045 140.573 156.571 145.781 162.842 145.754C169.659 145.661 174.386 139.353 173.257 133.659C171.577 126.492 164.565 123.916 159.849 125.889ZM164.285 136.467C163.861 137.071 163.313 137.533 162.499 137.672C162.262 137.719 161.963 137.654 161.684 137.634C161.703 137.255 161.7 136.056 162.05 134.745C162.138 134.305 162.485 133.733 162.667 133.681C162.918 133.67 162.756 133.716 163.212 133.833C163.693 133.904 164.633 134.852 164.63 135.288C164.665 135.34 164.684 135.893 164.285 136.467Z" fill="black"/>
<path d="M299.946 69.1335C300.018 69.3925 300.149 69.7691 301.319 69.4863C304.341 68.7929 306.349 63.095 303.332 59.3617C301.513 57.1071 297.982 55.76 293.904 56.7937C284.774 59.0826 280.391 74.2026 285.906 83.5208C290.431 91.4404 301.831 91.4541 308.492 83.658C311.924 79.6553 313.611 74.3509 314.481 69.1421C316.386 57.7787 314.802 45.1718 304.78 39.5171C300.202 36.6779 294.276 36.23 290.062 38.5441C284.15 41.63 281.095 48.3428 279.444 54.7888C278.998 56.5735 278.862 57.5851 279 57.6277C279.378 57.7719 280.486 53.786 283.586 48.2103C285.188 45.5173 287.516 42.3731 291.122 40.758C299.081 36.9731 315.178 43.9308 310.501 68.4217C309.591 73.2802 307.96 77.7807 305.239 80.8453C302.629 83.8673 298.798 85.3235 295.827 85.0846C286.613 84.4823 285.492 69.7286 291.427 62.8881C294.974 58.7173 301.004 59.7286 301.725 63.4168C302.185 66.1925 300.937 67.4865 300.486 67.9944C299.93 68.565 299.852 68.824 299.946 69.1335Z" fill="black"/>
<path d="M186.756 72.7964C186.85 73.0654 186.983 73.3837 188.053 73.1348C192.098 72.1139 193.491 63.9626 188.15 60.5772C185.372 58.8038 181.079 58.7691 177.447 61.1432C168.316 66.7997 170.796 85.2274 181.312 89.6807C189.399 93.2029 200.913 88.1527 203.716 77.2827C207.733 62.6237 197.308 42.8465 182.16 45.5642C178.225 46.2646 175.032 48.5059 173.361 52.3077C172.069 55.304 172.337 58.0788 172.966 59.7145C173.609 61.382 174.388 62.0283 174.472 61.9564C174.854 61.7143 172.133 58.175 174.902 53.0469C176.174 50.5702 178.88 48.3494 182.52 47.992C200.03 45.9241 207.786 78.1114 192.539 85.0501C177.461 92.3481 171.715 69.7078 179.693 64.5066C183.224 62.047 188.035 62.7741 188.537 67.3853C188.713 70.0605 187.597 71.0927 187.189 71.6605C186.679 72.2108 186.65 72.5038 186.756 72.7964Z" fill="black"/>
<path d="M463.706 243.022C463.827 232.67 457.573 223.208 449.084 217.043C444.744 213.878 439.852 211.27 434.747 208.619C433.694 161.504 434.147 139.039 432.908 138.963C431.869 138.893 429.77 158.246 428.656 183.984C427.298 177.591 333.727 129.429 235.32 140.889C210.646 143.685 184.924 149.275 161.981 155.937C139.03 162.613 118.724 169.931 104.122 175.425C89.5278 180.947 80.6194 184.672 80.8134 185.237C81.0134 185.819 90.3079 183.182 105.22 178.661C169.97 159.16 230.649 141.272 300.727 149.786C379.171 159.495 426.794 190.06 428.635 184.49C426.566 232.813 427.927 363.78 428.006 365.243C413.89 358.78 394.961 353.771 379.186 350.067C324.808 336.221 244.372 333.613 166.894 353.18C138.69 360.861 85.9894 379.665 87.4666 382.948C88.4928 385.285 133.245 362.47 208.123 352.266C204.563 362.061 202.307 390.12 202.753 401.995C199.764 402.634 196.89 403.827 194.411 405.608C193.289 406.414 188.023 409.081 186.971 411.047C186.258 411.472 185.638 411.997 185.237 412.668C184.305 414.492 184.461 415.895 184.894 416.851C178.742 418.067 175.36 423.647 176.278 427.409C170.098 430.244 168.878 435.174 169.512 435.46C170.11 435.739 172.169 432.628 176.176 431.294C180.121 429.713 185.052 430.193 188.148 431.037C196.457 433.259 199.629 435.8 200.743 433.551C201.037 432.957 201.253 432.389 199.943 431.26C194.256 426.988 185.55 424.24 178.126 426.687C179.298 424.171 181.59 422.39 184.017 421.736C188.417 420.473 193.801 422.809 195.285 422.864C196.534 423.011 196.876 422.532 197.194 421.944C197.508 421.366 197.778 420.808 196.802 419.823C195.212 418.252 191.154 416.471 187.019 416.597C186.718 414.698 188.09 413.234 190.533 413.567C192.03 413.694 193.657 414.614 196.197 416.013C203.18 420.042 212.49 416.937 216.488 410.148C217.046 410.633 231.063 416.669 230.807 427.497C230.781 431.259 228.303 435.473 224.862 439.781C215.703 451.488 206.004 462.291 193.636 470.547C179.369 433.608 149.014 436.702 139.787 458.11C137.23 464.067 136.531 471.237 138.206 478.334C139.444 482.784 140.236 482.849 140.82 482.709C140.625 483.105 140.388 483.919 140.497 485.214C140.616 487.11 141.858 489.727 144.269 492.014C154.342 501.317 176.034 503.864 197.114 489.628C210.192 480.941 228.118 462.886 237.027 447.626C241.118 440.86 241.763 434.677 240.855 430.986C240.01 427.209 238.455 425.647 237.695 425.002C236.855 424.368 236.567 424.55 236.319 424.76C234.821 426.023 241.692 432.072 233.224 445.358C223.919 460.164 206.039 477.983 194.633 485.96C169.11 504.06 143.878 494.885 141.451 485.046C141.121 483.843 141.166 482.984 141.119 482.616C143.455 481.529 136.799 463.423 150.338 451.671C159.803 443.398 172.042 446.339 180.793 455.101C186.238 460.486 189.725 466.819 192.676 471.197C179.946 479.444 166.326 482.867 155.159 482.446C147.368 482.186 142.692 480.509 142.572 480.922C142.52 481.068 143.63 481.612 145.74 482.372C158.745 486.608 173.768 484.283 185.809 478.959C203.036 471.514 216.951 457.193 228.561 442.693C232.106 438.323 235.497 433.206 235.611 427.641C235.698 420.676 231.804 415.45 227.949 412.057C223.766 408.407 219.031 406.233 214.168 403.789C214.161 403.808 214.156 403.821 214.148 403.84C213.14 402.351 211.203 401.775 209.4 401.571C208.601 401.481 207.798 401.532 206.995 401.538C210.089 391.23 216.359 359.876 214.467 351.432C247.011 347.393 280.589 346.666 308.498 348.729C307.45 362.509 308.687 382.701 312.646 396.75C309.839 397.672 306.021 399.43 305.418 402.322C305.403 402.307 305.393 402.297 305.378 402.281C301.644 406.582 297.99 410.49 295.407 415.655C293.043 420.434 291.366 426.989 294.196 433.642C296.5 438.941 301.775 442.517 306.902 445.315C312.063 448.174 317.7 451.107 323.715 453.746C377.622 477.701 405.157 448.791 404.55 448.107C404.271 447.759 400.444 451.213 393.064 454.536C382.525 459.336 368.094 461.436 352.581 458.527C353.682 453.087 354.52 445.666 357.604 438.365C362.581 426.385 373.243 418.786 385.584 422.996C403.233 428.946 404.094 448.995 406.613 449.158C406.711 449.527 407.094 450.334 407.253 451.625C408.746 461.664 388.782 480.93 356.547 473.479C342.372 470.302 318.18 460.21 303.476 449.713C290.076 440.275 294.338 431.784 292.38 431.155C290.64 430.593 288.104 437.893 293.328 445.798C299.628 455.4 318.517 464.75 329.052 469.248C347.794 477.185 368.439 483.545 387.422 476.134C397.201 472.532 404.39 465.672 407.294 459.428C408.708 456.281 408.869 453.278 408.235 451.411C407.829 450.124 407.28 449.436 406.937 449.133C407.528 449.039 408.238 448.662 407.659 443.915C401.814 407.981 350.608 404.018 351.435 458.287C336.296 455.239 322.718 448.689 309.306 441.059C304.302 438.28 300.261 435.211 298.752 431.609C296.763 427.075 297.853 421.819 299.834 417.848C301.89 413.663 305.315 409.775 305.619 409.366L305.632 409.342L305.658 409.302C312.201 414.266 322.363 413.525 327.456 406.931C329.343 404.586 330.543 403.061 331.93 402.349C334.163 401.054 336.045 401.951 336.499 403.872C332.65 405.319 329.318 408.614 328.377 410.828C327.829 412.158 328.308 412.588 328.838 413.019C330.867 414.674 332.046 411.653 337.607 408.803C342.172 406.659 346.191 407.441 349.018 410.053C341.159 410.614 333.831 416.396 329.873 423.049C329.06 424.649 329.491 425.11 330.007 425.564C330.526 426.02 331.042 426.371 332.511 425.391C335.418 423.69 343.108 413.789 352.707 413.708C357.082 413.408 360.286 415.583 360.75 415.08C361.266 414.535 358.144 410.303 351.078 410.018C350.494 406.121 345.111 402 338.64 403.278C338.679 402.189 338.275 400.779 336.661 399.396C336.011 398.91 335.208 398.651 334.356 398.524C332.57 397.05 326.463 396.567 325.067 396.235C323.566 395.879 322.027 395.714 320.481 395.663C319.633 388.12 315.093 359.125 312.695 349.041C376.931 353.673 414.656 367.767 428.443 369.858C428.934 372.964 429.655 373.208 430.433 373.249C431.643 373.313 432.759 372.935 434.068 361.827C435.144 351.954 436.373 333.499 436.397 299.458C446.944 309.898 462.102 300.681 460.035 289.108C459.121 284.723 457.019 283.236 456.027 282.727C454.916 282.245 454.468 282.665 454.047 283.085C452.545 284.574 454.057 285.825 453.85 289.635C453.262 296.462 444.505 298.694 440.899 291.312C439.419 288.363 439.457 283.48 442.059 278.697C447.442 268.024 463.59 258.788 463.706 243.022ZM436.174 271.424C435.877 253.778 435.287 232.238 434.816 211.697C440.991 216.915 449.167 221.91 453.578 230.479C463.801 249.803 445.169 257.969 436.174 271.424Z" fill="black"/>
<path d="M353.034 416.857C348.123 419.077 343.633 424.208 341.744 429.059C341.278 430.545 341.767 430.94 342.336 431.327C342.906 431.715 343.457 432.008 344.657 431.049C347.079 429.332 352.44 420.179 360.351 418.919C363.953 418.116 366.916 419.529 367.326 418.983C367.516 418.727 367.035 417.901 365.777 417.047C363.058 415.196 358.015 414.579 353.034 416.857Z" fill="black"/>
<path d="M181.287 439.964C188.196 442.844 190.514 445.244 191.867 443.198C192.233 442.645 192.524 442.114 191.564 440.96C190.544 439.889 188.536 437.8 183.018 435.48C175.091 432.476 168.203 435.343 165.753 439.053C164.945 440.275 164.818 441.187 165.081 441.345C165.978 441.88 170.807 435.545 181.287 439.964Z" fill="black"/>
<path d="M424.767 72.7977C428.006 57.2845 427.473 56.7868 426.207 56.4662C425.125 56.1868 423.752 56.184 420.46 71.9479C419.595 76.2718 418.647 83.1535 418.256 88.9755C417.848 94.7981 417.94 99.541 418.536 99.5995C419.339 99.6794 420.674 92.5822 424.767 72.7977Z" fill="black"/>
<path d="M438.399 100.732C445.582 95.1811 450.739 87.6759 451.835 84.1817C452.243 82.7572 451.798 82.4331 451.278 82.1211C449.616 81.1224 448.553 83.1168 443.325 89.7755C435.245 100.094 431.487 103.584 432.031 104.27C432.399 104.737 435.256 103.197 438.399 100.732Z" fill="black"/>
<path d="M469.812 101.171C469.167 100.146 468.447 99.4374 459.072 105.339C453.935 108.572 443.434 116.343 444.08 117.369C444.726 118.395 456.274 112.287 461.411 109.054C470.786 103.152 470.458 102.197 469.812 101.171Z" fill="black"/>
<path d="M150.537 32.5632C151.165 32.5572 151.662 30.3046 152.953 28.0072C154.184 25.6634 156.227 23.4123 157.655 22.1736C160.27 19.8951 161.951 19.2782 162.68 18.5643C163.456 17.9359 163.397 17.3806 163.256 16.7921C163.115 16.2037 162.976 15.6708 161.766 15.5981C160.633 15.6139 158.113 15.9525 154.718 18.912C152.859 20.5083 150.68 23.8178 150.036 26.9458C149.307 30.0766 149.964 32.5975 150.537 32.5632Z" fill="black"/>
<path d="M329.17 23.3036C332.941 28.4446 333.24 30.416 335.163 29.6805C335.729 29.4641 336.231 29.2414 336.154 27.9939C335.724 24.1573 331.479 17.6657 325.357 14.259C322.477 12.5974 319.851 12.0094 319.608 12.5421C319.15 13.5055 323.713 15.8299 329.17 23.3036Z" fill="black"/>
<path d="M127.175 222.244C124.751 222.184 122.18 246.513 121.896 257.872C121.38 278.602 123.333 279.085 125.757 279.145C127.373 279.185 128.787 278.993 129.706 272.732C135.954 272.775 158.292 267.824 171.313 262.151C170.95 266.741 170.667 271.02 170.51 274.468C169.129 304.866 171.063 305.591 173.485 305.701C175.906 305.811 177.899 305.265 179.28 274.866C180.037 258.21 179.699 222.374 177.277 222.264C175.643 222.19 173.481 238.397 172.013 254.066C161.783 255.316 137.864 264.793 130.066 269.694C130.341 266.794 130.55 263.035 130.673 258.091C130.956 246.731 129.599 222.305 127.175 222.244Z" fill="black"/>
<path d="M309.375 210.697C306.968 210.414 302.165 234.402 300.836 245.687C298.412 266.282 300.313 266.942 302.72 267.225C304.326 267.414 305.752 267.353 307.243 261.204C313.456 261.821 336.154 258.952 349.649 254.501C348.864 259.038 348.188 263.273 347.714 266.692C343.538 296.833 345.397 297.733 347.798 298.066C350.2 298.399 352.234 298.038 356.41 267.897C358.699 251.38 361.664 215.666 359.263 215.333C357.643 215.109 353.996 231.048 351.091 246.514C340.792 246.817 316.102 254.049 307.882 258.212C310.738 243.116 312.165 211.026 309.375 210.697Z" fill="black"/>
<path d="M219.174 253.46C218.791 252.993 218.384 252.579 216.909 253.244C208.02 257.552 206.742 276.579 219.062 286.631C224.442 290.98 232.558 292.882 241.043 290.952C262.053 286.307 275.456 262.47 266.398 232.565C262.45 220.364 253.941 208.475 241.726 207.036C230.211 205.331 219.447 213.674 214.678 224.459C208.917 237.721 211.344 256.051 212.142 256.081C212.836 256.112 213.123 250.297 214.479 241.33C215.236 236.893 216.426 231.617 219.096 226.596C225.317 214.826 238.887 208.783 248.792 217.812C260.46 227.911 264.777 253.945 256.089 269.472C247.229 285.641 223.121 289.302 217.635 270.881C216.681 267.738 216.637 265.043 216.888 262.974C217.67 256.715 220.685 255.299 219.174 253.46Z" fill="black"/>
</svg>
