<svg width="1000" height="1000" viewBox="0 0 1000 1000" fill="none" xmlns="http://www.w3.org/2000/svg">
<path d="M546 974.18C539.46 965.04 533 954.9 533.11 943.67C533.22 932.44 543.06 920.67 554.11 922.89C561.66 924.39 566.66 931.37 570.88 937.8C571.07 932.01 572.93 925.89 577.49 922.31C582.05 918.73 589.72 918.91 592.9 923.75C587.9 909.26 586.69 893.22 591.14 878.55C595.59 863.88 606.07 850.79 620.14 844.72C624.903 842.525 630.12 841.496 635.36 841.72C643.7 842.31 651.3 847.06 657 853.17C673.14 870.46 674.86 896.32 675.7 919.96C681.7 912.96 688.9 906.55 697.7 903.66C706.5 900.77 717.06 902.05 723.5 908.66C732.61 918.03 730.34 933.22 727.5 945.97C729.712 941.873 733.191 938.601 737.415 936.644C741.64 934.686 746.385 934.148 750.941 935.108C755.497 936.069 759.62 938.478 762.694 941.974C765.769 945.471 767.63 949.868 768 954.51C774.7 948.16 784.34 944.28 793.31 946.45C802.28 948.62 809.51 958 807.44 967L804 970" fill="#1A1C3F"/>
<path d="M397.34 236.2C341.82 314.28 287.873 393.45 235.5 473.71L284.44 480L228.3 571.64C237.952 573.855 247.924 574.316 257.74 573C197.14 706.267 133.967 838.32 68.22 969.16C153.91 966.33 223.41 974.89 323.22 971.16C366.28 969.56 408.47 973.91 451.55 974.88C501.2 975.99 557.68 968.57 607.32 969.69C596.889 872.978 580.802 776.96 559.14 682.13C563.53 691.24 577.14 688.77 578.03 678.69C579.61 660.137 580.31 641.537 580.13 622.89H639.72C628.87 573.58 608.21 525.5 594.56 476.89C602.49 477.59 622.26 472.43 629.56 467.89C624.384 407.462 611.24 347.983 590.47 291" fill="#EF6348"/>
<path d="M369.59 442.79C367.41 432.39 360.9 423.26 358.95 412.79C358.204 409.6 358.342 406.267 359.35 403.15C360.11 401.15 361.61 399.15 363.73 398.68C366.24 398.08 368.73 399.62 370.82 401.12C380.294 407.683 389.169 415.072 397.34 423.2C401.47 427.4 405.54 432.36 405.82 438.2" fill="white"/>
<path d="M466.1 420.52C466.012 411.845 466.779 403.184 468.39 394.66C468.77 391.852 469.669 389.139 471.04 386.66C472.53 384.27 475.04 382.34 477.86 382.26C479.087 382.286 480.295 382.575 481.401 383.108C482.507 383.641 483.485 384.406 484.27 385.35C485.826 387.251 487.011 389.429 487.76 391.77C490.25 398.54 491.45 405.7 492.64 412.82C493.27 416.57 493.9 420.42 493.19 424.16" fill="white"/>
<path d="M360.74 448.35C358.57 437.95 352.06 428.82 350.1 418.35C349.359 415.16 349.497 411.828 350.5 408.71C351.27 406.71 352.77 404.71 354.88 404.23C357.4 403.64 359.88 405.18 361.98 406.68C371.456 413.24 380.331 420.629 388.5 428.76C392.62 432.96 396.69 437.92 396.98 443.76" fill="#EAB642"/>
<path d="M457.26 426.08C457.168 417.406 457.932 408.744 459.54 400.22C459.922 397.411 460.824 394.698 462.2 392.22C463.69 389.83 466.2 387.9 469.01 387.82C470.239 387.844 471.449 388.133 472.556 388.666C473.664 389.199 474.644 389.964 475.43 390.91C476.983 392.814 478.167 394.991 478.92 397.33C481.41 404.1 482.61 411.26 483.8 418.33C484.43 422.09 485.06 425.94 484.34 429.67" fill="#EAB642"/>
<path d="M371.14 442.79C371.58 435.47 367.29 428.29 364.92 421.57C363.29 416.94 358.29 397.15 369.02 404.23C375.812 408.811 382.257 413.888 388.3 419.42C394.86 425.32 400.01 430.64 402.95 439.06C404.11 442.37 408.4 441.56 408.8 438.27C410.02 428.27 398.51 419.13 391.9 413.27C387.82 409.65 383.56 406.27 379.22 402.94C375.32 399.94 370.81 395.57 365.7 395.09C355.7 394.14 354.27 406.65 355.7 413.74C356.7 418.96 359.01 423.8 361.31 428.56C363.69 433.5 365.55 438.83 368.25 443.56C368.428 443.845 368.694 444.066 369.007 444.189C369.32 444.312 369.664 444.331 369.989 444.244C370.313 444.156 370.602 443.967 370.811 443.703C371.02 443.44 371.139 443.116 371.15 442.78L371.14 442.79Z" fill="#1A1C3F"/>
<path d="M467.88 421C468.88 416.07 470.45 381.37 480.09 386.76C484.71 389.35 486.01 398.56 487.01 403.2C488.682 410.076 489.548 417.124 489.59 424.2C489.53 428.2 495.65 429.1 496.65 425.15C497.85 420.41 496.96 415.7 496.17 410.95C495.38 406.2 494.55 401.46 493.31 396.81C491.4 389.64 488.31 380.08 479.81 378.67C471.63 377.33 466.7 385.1 465.32 392.07C463.51 401.18 462.44 411.9 464.32 421.02C464.436 421.402 464.671 421.737 464.992 421.974C465.312 422.212 465.701 422.34 466.1 422.34C466.499 422.34 466.888 422.212 467.208 421.974C467.529 421.737 467.764 421.402 467.88 421.02V421Z" fill="#1A1C3F"/>
<path d="M507.17 434.8C514.22 433.52 521.36 435.94 528.11 438.32L558.69 449.12C565.4 451.48 573.21 455.12 574.1 462.2C574.318 464.616 573.843 467.044 572.73 469.2C568.42 478.11 557.34 482.06 547.49 481C537.64 479.94 528.74 474.9 520.2 469.89C517.91 468.55 515.56 467.13 514 464.98H510.2" fill="#1A1C3F"/>
<path d="M507.17 437C520.25 436.75 533.11 443.72 545.12 448.27C552.23 450.97 574.22 455.72 568.75 467.32C564.11 477.13 550.98 477.97 541.89 475.32C536.08 473.65 530.74 470.74 525.53 467.74C522.789 466.17 520.186 464.37 517.75 462.36C515.16 460.24 513.65 460.47 510.2 460.74C509.099 460.793 508.061 461.268 507.301 462.066C506.541 462.863 506.117 463.923 506.117 465.025C506.117 466.127 506.541 467.187 507.301 467.984C508.061 468.782 509.099 469.257 510.2 469.31L514 469.55L510.78 468.22C515.3 473.93 523.78 477.54 530.28 480.49C536.55 483.35 543.28 485.57 550.2 485.66C562.13 485.81 575.86 479.09 578.2 466.37C580.96 451.52 564.2 446.7 553.39 443.17C545.25 440.5 537.12 437.76 528.95 435.17C521.73 432.87 514.1 430.72 506.56 432.69C504.21 433.31 504.67 437.01 507.14 436.96L507.17 437Z" fill="#1A1C3F"/>
<path d="M354.54 520.07C324.54 538.46 299.18 586.84 280.82 616.84C262.46 646.84 252.44 682.32 254.82 717.42C256.2 737.63 261.56 757.35 267.5 776.72C270 785 273.32 794 281 798C286.56 800.93 293.21 800.5 299.48 800C306.23 799.45 314.16 798.17 317.22 792.12C319.06 788.48 318.51 784.12 317.99 780.12C316.86 771.38 316.1 762.34 318.63 753.9C321.16 745.46 327.63 737.68 336.34 736.1C348.91 733.82 360.34 745.28 363.98 757.52C366.19 764.95 366.43 772.72 366.57 780.41C366.76 790.85 363.95 801.1 376.67 804.31C394.08 808.71 416.11 799.74 420.24 780.98C428.24 744.71 412.92 704.71 436.94 672.44C443.31 663.89 451.11 656.28 455.86 646.62C460.71 636.75 462.2 625.55 461.96 614.62C461.42 589.36 453.36 564.99 447.36 540.68" fill="white"/>
<path d="M368.56 529.22C338.56 547.61 313.21 595.98 294.84 625.99C276.47 656 266.47 691.47 268.84 726.57C270.21 746.78 275.58 766.5 281.52 785.87C284.04 794.11 287.32 803.13 294.96 807.15C300.52 810.08 307.17 809.65 313.43 809.15C320.19 808.61 328.11 807.33 331.17 801.28C333.02 797.64 332.47 793.28 331.94 789.28C330.81 780.54 330.06 771.5 332.58 763.06C335.1 754.62 341.58 746.84 350.3 745.26C362.87 742.98 374.3 754.44 377.93 766.68C380.14 774.11 380.39 781.87 380.53 789.56C380.71 800.01 377.9 810.26 390.63 813.47C408.03 817.87 430.06 808.9 434.2 790.14C442.2 753.86 426.87 713.87 450.9 681.6C457.26 673.05 465.07 665.44 469.82 655.77C474.67 645.91 476.15 634.71 475.92 623.77C475.37 598.52 467.31 574.15 461.31 549.84" fill="#DDEDE8"/>
<path d="M365.29 752.42C365.55 755.55 365.99 758.662 366.61 761.74C366.701 762.588 367.05 763.387 367.61 764.03C368.368 764.607 369.311 764.884 370.26 764.81C373.204 764.835 376.119 764.217 378.8 763C379.292 762.816 379.726 762.505 380.06 762.1C380.314 761.648 380.452 761.139 380.46 760.62C380.613 758.764 380.637 756.9 380.53 755.04C381.073 755.988 381.842 756.786 382.769 757.363C383.695 757.941 384.75 758.28 385.84 758.35C388.022 758.458 390.203 758.135 392.26 757.4C394.314 756.91 396.232 755.963 397.87 754.63C399.065 753.483 399.87 751.99 400.173 750.362C400.476 748.733 400.262 747.051 399.56 745.55C401.76 747.67 404.56 749.96 407.56 749.08C408.541 748.71 409.449 748.168 410.24 747.48L414.55 744.15C415.96 743.06 417.48 741.76 417.63 739.99C417.81 737.92 416.06 736.25 414.46 734.93C418.12 732.76 418.93 727.93 419.35 723.68L421.26 704.76C421.489 703.731 421.302 702.653 420.74 701.76C419.92 700.76 418.42 700.84 417.17 701.06C411.01 702.14 405.39 705.28 400.36 709C395.33 712.72 390.78 717 385.85 720.87C379 726.2 371.44 730.6 363.94 735" fill="#1A1C3F"/>
<path d="M363.34 752.42C363.51 758.8 362.7 767.64 371.14 767.74C374.48 767.74 379.01 767.05 381.59 764.74C384.17 762.43 383.71 758.26 383.59 755.06L377.84 756.62C385.26 768 407.72 758.39 402.7 744.7L397.2 747.9C399.64 750.17 402.51 752.57 406.04 752.63C410.04 752.69 413.26 749.4 416.2 747.11C421.83 742.71 422.32 737.31 416.85 732.48L416.15 737.95C423.15 733.03 422.89 723.85 423.68 716.13C424.38 709.23 427.97 696.03 416.61 697.45C406.82 698.67 398.4 705.53 391.12 711.65C386.658 715.537 381.985 719.172 377.12 722.54C372.22 725.82 366.95 728.54 362.12 731.88C361.304 732.356 360.711 733.137 360.471 734.05C360.231 734.963 360.364 735.935 360.84 736.75C361.316 737.566 362.097 738.159 363.01 738.399C363.923 738.639 364.894 738.506 365.71 738.03C372.914 734.385 379.761 730.073 386.16 725.15C392.57 720.35 398.24 714.57 404.94 710.15C407.955 708.062 411.265 706.434 414.76 705.32C415.946 704.942 417.164 704.678 418.4 704.53C417.77 703.44 417.5 703.34 417.58 704.22C417.534 706.302 417.333 708.378 416.98 710.43C416.6 714.217 416.23 718 415.87 721.78C415.56 725.06 415.59 729.78 412.63 731.92C410.97 733.13 410.07 735.8 411.93 737.39C413.01 738.32 414.01 738.74 413.56 740.16C413.22 741.16 411.37 742.29 410.64 742.86C409.64 743.62 408.34 745.14 407.2 745.51C404.97 746.22 403.42 744.66 401.85 743.23C399.63 741.23 395.11 743.14 396.36 746.43C397.8 750.19 395.76 752.76 392.14 754.09C389.48 755.09 385.14 756.42 383.14 753.48C381.53 751.08 377.26 751.79 377.39 755.04C377.46 756.87 377.96 759.35 376.3 760.74C375.55 761.37 371.12 762.24 370.2 761.84C367.72 760.74 367.51 754.29 367.12 751.84C366.77 749.65 363.22 750.19 363.28 752.36L363.34 752.42Z" fill="#1A1C3F"/>
<path d="M353.68 518.61C332.68 531.1 317.43 552.03 304.19 572.07C297.06 582.87 290.52 594.07 283.85 605.14C276.85 616.83 269.78 628.33 264.47 640.94C252.47 669.33 247.9 700.21 252.15 730.78C254.41 747.03 258.7 762.92 263.59 778.55C267.4 790.72 273.43 802.55 287.38 804.31C297.77 805.66 315.19 804.93 320.84 794.31C324.15 788.06 321.97 780.56 321.31 773.98C320.56 766.47 320.52 758.33 323.86 751.39C326.6 745.69 331.65 740.56 338.22 739.94C344.79 739.32 350.8 743.52 354.74 748.5C363.74 759.87 362.32 775.37 362.32 788.99C362.32 800.28 367.79 807.2 379.16 808.99C390.028 810.671 401.129 808.174 410.23 802C420.15 795.08 424 785.33 425.58 773.7C427.48 759.7 426.77 745.64 426.64 731.59C426.52 717.83 426.97 703.85 431.64 690.76C436.82 676.31 448.42 666.53 456.46 653.86C473.46 627.12 464.87 591.8 457.53 563.35C455.53 555.43 453.35 547.53 451.27 539.62C449.91 534.46 442.07 536.62 443.27 541.82C450.15 571.16 463.27 603.68 455.81 634.14C452.38 648.14 442.81 657.84 434.28 669.01C426.18 679.68 421.56 692.01 419.71 705.25C417.95 717.71 418.36 730.25 418.57 742.82C418.78 755.67 419.57 770 415.57 782.4C412.31 792.4 402.73 798.6 392.81 800.65C387.815 801.733 382.637 801.647 377.68 800.4C371.58 798.74 370.42 794.8 370.42 788.98C370.42 776.44 371.24 763.17 365.91 751.45C361.53 741.81 352.71 733.02 341.76 731.91C330.13 730.69 320.39 739 316 749.2C313.87 754.542 312.803 760.249 312.86 766C312.852 769.538 313.039 773.073 313.42 776.59C313.78 780.22 314.93 784.54 314.07 788.16C312.55 794.52 304.86 795.26 299.43 795.72C292 796.36 283.83 796.84 278.55 790.6C274.55 785.88 272.85 779.6 271.09 773.77C268.87 766.5 266.77 759.18 264.89 751.77C257.34 722.16 256.32 692.39 264.6 662.77C272.49 634.6 288.66 609.77 303.73 584.96C317.59 562.17 332.61 536.45 355.39 521.48C357.21 520.29 355.57 517.42 353.68 518.55V518.61Z" fill="#1A1C3F"/>
<path d="M319.59 677.08C315.333 680.305 311.86 684.449 309.429 689.204C306.998 693.959 305.673 699.202 305.552 704.541C305.43 709.88 306.517 715.177 308.729 720.037C310.942 724.898 314.224 729.195 318.33 732.61C314.26 735.71 309.7 740.43 311.67 745.15C313.3 749.01 318.79 749.94 322.49 747.95C326.19 745.96 328.38 742.05 330.03 738.19C329.08 738.13 329.35 739.88 330.29 740.08C331.23 740.28 332.16 739.69 333.11 739.65C335.22 739.56 336.55 742.02 336.59 744.14C336.63 746.26 335.95 748.39 336.42 750.45C337.3 754.26 342.42 756.13 345.81 754.25C349.2 752.37 350.53 747.67 349.1 744.03C351.752 744.12 354.392 743.649 356.85 742.65C356.85 745.8 357.43 749.09 359.36 751.57C361.29 754.05 364.95 755.4 367.72 753.9C372.25 751.44 370.92 744.68 368.96 739.9L375.5 736.48C374.83 742.19 381.41 747.39 386.82 745.48C392.23 743.57 393.93 735.3 389.75 731.34L395.17 727.49C394.17 730.49 396.83 733.83 399.95 734.15C403.07 734.47 406.08 732.34 407.55 729.57C408.316 728.077 408.725 726.427 408.746 724.749C408.767 723.071 408.398 721.411 407.67 719.9C406.25 717.02 403.48 714.55 403.62 711.34C403.71 709.59 404.68 708.03 405.49 706.47C411.66 694.63 409.17 680.17 404.86 667.53C403.92 664.77 402.79 661.9 400.49 660.12C398.19 658.34 394.34 658.24 392.73 660.66" fill="#F7CEBF"/>
<path d="M318.68 675.52C296.91 688.57 297.47 719.36 315.55 735.39V729.83C311.63 732.83 307.44 737.01 307.23 742.33C307.156 744.327 307.683 746.301 308.742 747.996C309.8 749.691 311.343 751.03 313.17 751.84C322.49 756.14 330.01 747.97 333.45 740.2C334.85 737.04 331.61 732.14 328.03 734.77L327.47 735.19C326.744 735.658 326.179 736.338 325.852 737.137C325.525 737.936 325.451 738.817 325.64 739.66C325.778 740.634 326.19 741.55 326.827 742.3C327.464 743.051 328.301 743.605 329.24 743.9C332.57 744.9 332.75 742.06 332.48 746.52C332.18 751.52 333.37 755.64 338.17 757.88C347.87 762.41 355.58 751.88 352.88 742.99L349.1 747.99C352.096 747.988 355.07 747.471 357.89 746.46L353 742.65C353.35 750.56 358.4 761.12 368.18 757.89C376.39 755.17 375.23 745.25 372.77 738.89L370.98 743.3L377.52 739.88L371.64 736.51C371.39 745.09 380.57 752.51 388.85 748.84C396.85 745.32 398.09 734.66 392.61 728.51L391.81 734.75L397.24 730.92L391.37 726.4C389.37 737.7 403.07 741.7 409.76 733.57C411.225 731.691 412.214 729.486 412.644 727.142C413.074 724.799 412.932 722.386 412.23 720.11C411.44 717.49 409.11 715.53 408.34 713.04C407.48 710.22 409.72 707.65 410.75 705.04C415.28 693.73 413.45 680.9 409.98 669.57C408.56 664.91 406.93 659.34 402.65 656.47C400.725 655.093 398.368 654.457 396.011 654.678C393.655 654.898 391.457 655.96 389.82 657.67C386.18 661.61 392.07 667.53 395.73 663.58C399.23 659.79 403.6 678 404 680.02C405.35 686.84 405.63 694.08 403.4 700.75C401.6 706.12 397.96 710.18 400.58 715.99C401.68 718.46 403.88 720.47 404.49 723.13C404.712 723.978 404.747 724.864 404.593 725.727C404.439 726.59 404.101 727.41 403.6 728.13C402.86 729.13 398.6 731.45 399.08 728.49C399.56 725.53 396.34 721.72 393.21 723.97L387.8 727.85C387.279 728.16 386.835 728.584 386.502 729.09C386.169 729.596 385.956 730.172 385.878 730.773C385.8 731.374 385.859 731.985 386.052 732.559C386.245 733.134 386.565 733.657 386.99 734.09C388.77 736.09 388.59 740.26 385.93 741.56C382.61 743.17 379.37 739.56 379.45 736.47C379.53 733.38 376.11 731.77 373.57 733.09L367 736.54C366.26 736.975 365.684 737.642 365.36 738.437C365.037 739.232 364.984 740.112 365.21 740.94C366.01 743.01 367.71 746.78 366.76 748.94C365.76 751.28 364.13 750.71 362.61 749.15C360.95 747.42 360.85 744.9 360.76 742.63C360.67 740.36 358.32 737.98 355.82 738.87C353.673 739.67 351.401 740.083 349.11 740.09C348.508 740.105 347.918 740.256 347.383 740.532C346.847 740.807 346.381 741.2 346.019 741.68C345.656 742.161 345.407 742.717 345.29 743.307C345.172 743.898 345.189 744.507 345.34 745.09C346.09 747.58 344.65 753.09 341.11 750.59C339.22 749.23 340.72 744.46 340.33 742.46C339.22 736.9 335.33 735.7 330.33 736.14L333.13 737.3L333.33 737.58L331.47 742L332.03 741.59L326.61 736.16C325.12 739.5 322.9 744.7 318.61 744.92C311.17 745.29 318.83 737.18 321.08 735.36C321.801 734.614 322.204 733.617 322.204 732.58C322.204 731.542 321.801 730.546 321.08 729.8C304.8 715.9 306.6 693.02 320.84 678.33C321.147 678.018 321.33 677.606 321.357 677.169C321.383 676.733 321.25 676.301 320.983 675.955C320.716 675.609 320.333 675.371 319.904 675.285C319.475 675.2 319.029 675.272 318.65 675.49L318.68 675.52Z" fill="#1A1C3F"/>
<path d="M359.61 160.59C365.61 102.99 408.18 50.85 463.42 33.49C512.68 18 576.36 22.33 616.17 58C659.3 96.56 659 149 650 202C648.8 209 647.41 216.37 643.17 222.13C638.93 227.89 630.98 231.58 624.43 228.68" fill="#34C6A0"/>
<path d="M361.82 160.59C366.19 128 382.38 97.1698 405.51 73.9998C428.64 50.8298 458 36.5598 490.41 31.3798C522.82 26.1998 558 29.2198 587.62 43.8498C618.53 59.1098 640.62 86.9298 647.71 120.7C651.51 138.79 651.28 157.55 649.47 175.87C648.538 185.917 647.093 195.91 645.14 205.81C643.27 214.98 637.46 229.06 625.47 224.81C620.53 223.05 618.56 230.74 623.32 232.58C631.65 235.81 640.73 231.78 646.02 225.02C651.89 217.51 653.19 207.6 654.66 198.47C657.66 180.09 659.66 161.47 658.66 142.79C656.79 105.41 641.26 71.1698 610.94 48.3898C582 26.6098 544 19.0898 508.39 21.1998C472.78 23.3098 438.54 34.9098 411 57.9998C380.283 83.759 361.028 120.642 357.45 160.57C357.2 163.45 361.45 163.31 361.86 160.57L361.82 160.59Z" fill="#34C6A0"/>
<path d="M574.1 166.92C574.04 164.71 573.48 154.2 573.43 152C573.449 151.702 573.384 151.403 573.24 151.14C572.98 150.74 572.43 150.66 571.95 150.55C571.029 150.285 570.208 149.752 569.592 149.018C568.975 148.284 568.592 147.383 568.49 146.43C568.42 145.48 568.585 144.526 568.97 143.654C569.356 142.782 569.95 142.019 570.7 141.43C572.246 140.263 574.19 139.752 576.11 140.01C576.692 140.053 577.256 140.227 577.76 140.52C578.196 140.826 578.561 141.221 578.83 141.68C579.31 142.46 579.61 143.338 579.707 144.249C579.803 145.16 579.695 146.08 579.389 146.944C579.083 147.807 578.587 148.591 577.938 149.238C577.29 149.884 576.504 150.377 575.64 150.68" fill="#1A1C3F"/>
<path d="M575.87 166.92C576.341 162.63 576.558 158.316 576.52 154C576.52 152.59 576.64 150.85 575.87 149.6C575.45 148.9 574.66 148.7 574.22 148.1C572.22 147.54 572.22 145.89 574.07 143.1C576.737 145.6 576.737 147.247 574.07 148.04C570.59 149.75 573.64 154.91 577.07 153.24C582.21 150.76 584.53 144.24 580.9 139.46C577.1 134.46 568.68 137.04 566.19 142.05C565.618 143.178 565.311 144.422 565.29 145.686C565.269 146.951 565.536 148.204 566.07 149.35C566.727 150.69 567.745 151.819 569.01 152.61L571.01 153.47C570.37 152.21 570.14 152.1 570.32 153.15C570.58 157.95 571.53 162.61 572.26 167.36C572.58 169.46 575.58 168.73 575.74 166.89L575.87 166.92Z" fill="#1A1C3F"/>
<path d="M593.77 166.92C593.77 164.71 593.16 154.2 593.1 152C593.123 151.702 593.061 151.404 592.92 151.14C592.65 150.74 592.1 150.66 591.63 150.55C590.708 150.286 589.885 149.753 589.267 149.019C588.649 148.285 588.264 147.384 588.16 146.43C588.092 145.479 588.259 144.525 588.646 143.653C589.033 142.781 589.629 142.018 590.38 141.43C591.922 140.263 593.863 139.753 595.78 140.01C596.362 140.049 596.927 140.224 597.43 140.52C597.871 140.823 598.24 141.219 598.51 141.68C598.989 142.46 599.287 143.338 599.382 144.248C599.478 145.159 599.369 146.079 599.063 146.942C598.757 147.804 598.263 148.588 597.615 149.235C596.967 149.882 596.183 150.375 595.32 150.68" fill="#1A1C3F"/>
<path d="M595.55 166.92C596.018 162.63 596.232 158.316 596.19 154C596.19 152.59 596.31 150.85 595.55 149.6C595.12 148.9 594.34 148.7 593.89 148.1C591.89 147.54 591.89 145.89 593.75 143.1C596.417 145.6 596.417 147.247 593.75 148.04C590.26 149.75 593.31 154.91 596.75 153.24C601.89 150.76 604.21 144.24 600.58 139.46C596.78 134.46 588.36 137.04 585.86 142.05C585.288 143.179 584.981 144.423 584.962 145.687C584.942 146.952 585.212 148.205 585.75 149.35C586.407 150.69 587.425 151.819 588.69 152.61L590.69 153.47C590.05 152.21 589.82 152.1 589.99 153.15C590.25 157.95 591.21 162.61 591.99 167.36C592.31 169.46 595.3 168.73 595.47 166.89L595.55 166.92Z" fill="#1A1C3F"/>
<path d="M613.45 166.92C613.39 164.71 612.84 154.2 612.78 152C612.798 151.703 612.736 151.406 612.6 151.14C612.33 150.74 611.78 150.66 611.31 150.55C610.387 150.288 609.563 149.756 608.944 149.021C608.326 148.287 607.941 147.385 607.84 146.43C607.772 145.479 607.939 144.525 608.326 143.653C608.713 142.781 609.309 142.018 610.06 141.43C611.602 140.262 613.543 139.751 615.46 140.01C616.042 140.051 616.606 140.226 617.11 140.52C617.551 140.82 617.917 141.217 618.18 141.68C618.66 142.46 618.96 143.338 619.057 144.248C619.153 145.159 619.045 146.08 618.739 146.944C618.433 147.807 617.937 148.591 617.289 149.237C616.64 149.884 615.854 150.377 614.99 150.68" fill="#1A1C3F"/>
<path d="M615.22 166.92C615.691 162.63 615.908 158.316 615.87 154C615.87 152.59 615.99 150.85 615.23 149.6C614.8 148.9 614.02 148.7 613.57 148.1C611.57 147.54 611.57 145.89 613.43 143.1C616.097 145.6 616.113 147.247 613.48 148.04C609.99 149.75 613.04 154.91 616.48 153.24C621.63 150.76 623.95 144.24 620.31 139.46C616.51 134.46 608.1 137.04 605.6 142.05C605.028 143.179 604.721 144.423 604.702 145.687C604.683 146.952 604.952 148.205 605.49 149.35C606.147 150.69 607.165 151.819 608.43 152.61L610.43 153.47C609.8 152.21 609.56 152.1 609.74 153.15C610 157.95 610.95 162.61 611.68 167.36C612.01 169.46 615 168.73 615.16 166.89L615.22 166.92Z" fill="#1A1C3F"/>
<path d="M633.13 166.92C633.07 164.71 632.52 154.2 632.46 152C632.478 151.703 632.416 151.406 632.28 151.14C632.01 150.74 631.46 150.66 630.99 150.55C630.067 150.288 629.243 149.756 628.624 149.021C628.006 148.287 627.621 147.385 627.52 146.43C627.449 145.478 627.615 144.524 628.002 143.651C628.39 142.779 628.987 142.016 629.74 141.43C631.281 140.261 633.223 139.75 635.14 140.01C635.722 140.051 636.286 140.226 636.79 140.52C637.228 140.823 637.594 141.219 637.86 141.68C638.34 142.46 638.64 143.338 638.737 144.248C638.834 145.159 638.725 146.08 638.419 146.944C638.113 147.807 637.617 148.591 636.969 149.237C636.32 149.884 635.534 150.377 634.67 150.68" fill="#1A1C3F"/>
<path d="M634.9 166.92C635.371 162.63 635.588 158.316 635.55 154C635.55 152.59 635.67 150.85 634.91 149.6C634.48 148.9 633.69 148.7 633.25 148.1C631.25 147.54 631.25 145.89 633.11 143.1C635.777 145.6 635.777 147.247 633.11 148.04C629.63 149.75 632.68 154.91 636.11 153.24C641.26 150.76 643.58 144.24 639.94 139.46C636.14 134.46 627.73 137.04 625.23 142.05C624.658 143.178 624.351 144.422 624.33 145.686C624.309 146.951 624.576 148.204 625.11 149.35C625.772 150.686 626.789 151.814 628.05 152.61L630.05 153.47C629.41 152.21 629.18 152.1 629.36 153.15C629.62 157.95 630.57 162.61 631.3 167.36C631.62 169.46 634.62 168.73 634.78 166.89L634.9 166.92Z" fill="#1A1C3F"/>
<path d="M547.14 191.94L559.55 165.64C560.088 164.14 561.108 162.86 562.45 162C564.161 161.28 566.018 160.975 567.87 161.11C590.338 161.028 612.786 162.464 635.06 165.41C638.36 165.84 641.97 166.46 643.99 168.5C645.43 169.97 645.76 171.89 645.99 173.71C648.021 188.288 648.394 203.049 647.1 217.71" fill="#4747E2"/>
<path d="M548.08 192.48C550.98 186.72 553.81 180.92 556.66 175.13C558.1 172.19 559.3 168.6 561.19 165.94C563.68 162.43 566.91 162.81 570.76 162.84C583.94 162.98 597.1 163.54 610.23 164.66C616.623 165.214 622.997 165.88 629.35 166.66C632.35 167.04 635.86 167.1 638.79 168.11C643.65 169.79 643.87 172.85 644.41 177.51C645.98 190.94 645.61 204.2 645 217.66C644.87 220.45 648.93 220.3 649.25 217.66C650.135 209.401 650.345 201.084 649.88 192.79C649.56 185.79 649.51 177.91 647.62 171.09C646.2 165.99 641.82 164.44 637.03 163.65C629.45 162.4 621.71 161.79 614.03 161.15C598.46 159.82 582.03 158.21 566.41 159.44C560.35 159.91 558.85 163.21 556.52 168.36C553.05 176.02 549.52 183.68 546.16 191.36C545.61 192.61 547.4 193.72 548.04 192.45L548.08 192.48Z" fill="#4747E2"/>
<path d="M486.67 172.78C490.375 164.9 494.935 157.452 500.27 150.57C503.7 146.14 507.67 141.77 513.13 139.68C519.37 137.28 526.52 138.25 533.26 139.25C534.734 139.369 536.17 139.784 537.48 140.47C539.73 141.86 540.48 144.56 540.95 147C544.92 166.68 545.127 186.933 541.56 206.69" fill="white"/>
<path d="M495.37 173.9C499.092 166.023 503.662 158.575 509 151.69C512.43 147.26 516.41 142.89 521.86 140.8C528.1 138.4 535.25 139.37 541.99 140.37C543.468 140.488 544.907 140.903 546.22 141.59C548.46 142.98 549.22 145.68 549.68 148.12C553.649 167.8 553.859 188.052 550.3 207.81" fill="#EAB642"/>
<path d="M488.07 173.6C492.76 164.91 498.4 156.2 505.23 149.02C512.84 141.02 523.42 139.73 533.87 142.61C538.58 143.9 538.53 151.2 539.15 155.28C539.991 160.883 540.519 166.528 540.73 172.19C541.058 183.456 540.332 194.729 538.56 205.86C537.98 209.74 543.76 211.53 544.56 207.52C547.255 193.729 548.006 179.629 546.79 165.63C546.328 159.078 545.412 152.565 544.05 146.14C543.05 141.61 541.05 137.88 536.29 136.56C525.66 133.61 512.99 134.13 504.43 141.66C495.5 149.52 489.62 161.59 485.09 172.35C484.37 174.05 487.2 175.2 488.09 173.6H488.07Z" fill="#1A1C3F"/>
<path d="M516.21 141.67C499.27 136.57 486.21 120.45 484.79 102.83C483.37 85.2102 493.55 67.1702 509.43 59.3602C524.66 51.8702 545.27 54.8202 555.57 68.3602C560.48 74.8102 562.76 82.9502 563.47 91.0302C564.55 103.22 562.17 115.91 555.54 126.19C548.91 136.47 537.83 144.1 525.66 145.32" fill="white"/>
<path d="M529.6 145.47C512.66 140.37 499.6 124.26 498.18 106.63C496.76 88.9998 507 70.9998 522.82 63.1698C538.05 55.6798 558.67 58.6298 568.96 72.1698C573.88 78.6198 576.15 86.7698 576.87 94.8498C577.94 107.04 575.56 119.72 568.93 130.01C562.3 140.3 551.22 147.92 539.05 149.14" fill="#EAB642"/>
<path d="M516.73 139.78C509.765 137.161 503.559 132.851 498.672 127.239C493.784 121.628 490.368 114.889 488.73 107.63C485.68 93.2501 491.52 77.8201 502.38 68.1701C513.08 58.6501 529.22 55.8701 542.29 62.0701C557.5 69.2901 561.48 87.2501 559.94 102.69C558.08 121.38 545.19 139.55 525.64 142.17C521.75 142.7 521.64 148.86 525.64 148.41C544.99 146.27 559.74 131.9 564.91 113.41C569.91 95.7001 567.64 72.1601 552.25 60.0901C539.03 49.7401 519.46 49.3801 505.16 57.7201C490.25 66.4801 480.38 84.0001 481.4 101.4C482.048 111.112 485.694 120.382 491.837 127.932C497.979 135.483 506.314 140.94 515.69 143.55C518.16 144.22 519.05 140.65 516.69 139.78H516.73Z" fill="#1A1C3F"/>
<path d="M679.11 340.62C551.3 337.27 420.52 311.48 303 260.4C281.33 250.98 259.57 240.74 240.66 226.4C226.06 215.32 208.27 198.75 205.66 179.61C198.83 128.61 295.99 135.9 325.76 136.79C452.2 140.57 573.93 168.21 688.54 221.5C696.76 225.32 704.95 229.19 712.97 233.43C738.16 246.76 778.7 270.27 769.73 304.61C764.56 324.4 731.21 343.38 688.5 340.61" fill="white"/>
<path d="M702.75 362.52C574.93 359.17 444.16 333.38 326.61 282.3C304.95 272.88 283.19 262.64 264.28 248.3C249.67 237.22 231.89 220.65 229.28 201.51C222.45 150.51 319.61 157.8 349.38 158.69C475.82 162.47 597.54 190.11 712.16 243.4C720.38 247.22 728.57 251.09 736.59 255.33C761.78 268.66 802.32 292.17 793.35 326.51C788.18 346.3 754.82 365.28 712.12 362.51" fill="#DDEDE8"/>
<path d="M695.75 265.34C581.13 212.06 459.41 184.41 333 180.63C316.23 180.13 278.08 177.63 249.17 184.63C229.92 189.29 224.66 214.26 240.43 226.25L240.67 226.44C259.58 240.77 281.34 251.01 303.01 260.44C420.55 311.52 551.33 337.31 679.14 340.66H688.55C709.91 342 729 337.94 743.29 331C746.784 329.323 749.778 326.761 751.974 323.568C754.171 320.375 755.492 316.663 755.808 312.8C756.123 308.938 755.422 305.06 753.773 301.552C752.124 298.045 749.586 295.031 746.41 292.81C737.988 287.097 729.229 281.897 720.18 277.24C712.16 273 704 269.16 695.75 265.34Z" fill="#EAB642"/>
<path d="M565.4 315.17C512.02 313.77 457.4 303 408.31 281.66C399.26 277.73 390.17 273.45 382.31 267.47C376.21 262.84 368.78 255.92 367.71 247.93C364.86 226.62 405.44 229.67 417.87 230.04C470.68 231.62 521.52 243.17 569.38 265.42C572.82 267.02 576.24 268.63 579.59 270.42C590.11 275.98 607.04 285.8 603.29 300.14C601.13 308.41 587.2 316.33 569.37 315.14" fill="#1A1C3F"/>
<path d="M679.11 338.74C582.81 335.33 486.64 319.93 394.76 290.67C372.093 283.45 349.707 275.363 327.6 266.41C305.8 257.57 283.97 248.19 263.6 236.41C245.69 226.04 226.6 212.69 215.76 194.55C209.4 183.84 206.5 169.38 215.31 159.16C222.41 150.92 233.78 147.21 244.02 144.77C256.75 141.77 269.89 140.77 282.94 140.33C312.99 139.43 343.53 141.08 373.44 143.41C468.676 150.7 562.188 172.83 650.59 209C672.43 218 694.19 227.59 714.98 238.81C729.37 246.58 743.98 255.25 755.04 267.48C765.21 278.67 772.04 295.62 763.48 309.81C754.85 324.15 736.64 331.61 721.07 335.06C710.379 337.332 699.427 338.129 688.52 337.43C684.36 337.21 684.39 343.64 688.52 343.89C709.58 345.19 731.62 341.89 750.23 331.45C763.47 324.05 773.79 312.82 774.7 297.12C775.7 279.77 764.65 264.95 752.09 254.22C738.4 242.53 722.3 233.77 706.24 225.82C616 181.06 517.71 152.56 417.88 139.93C379.308 135.202 340.515 132.498 301.66 131.83C275.66 131.29 246 131.1 222.26 143.14C212.46 148.14 203.95 156.34 201.71 167.46C198.13 185.25 208.37 201.94 220.24 214.28C236.1 230.77 256.15 242.99 276.59 252.93C298.83 263.74 321.92 273 345.12 281.53C440.12 316.47 540.81 335.94 641.79 341.2C654.223 341.867 666.663 342.3 679.11 342.5C681.54 342.55 681.53 338.83 679.11 338.74Z" fill="#1A1C3F"/>
<path d="M565.4 313.29C526.5 311.42 487.68 305.11 450.52 293.35C432.26 287.56 413.89 280.77 397.01 271.65C389.35 267.51 381.52 262.65 376.01 255.73C373.01 251.94 369.95 245.91 373.27 241.39C378.5 234.27 392.34 234.23 400.15 233.97C412.16 233.69 424.177 234.04 436.15 235.02C474.551 237.77 512.313 246.324 548.15 260.39C558.397 264.328 568.413 268.842 578.15 273.91C584.47 277.26 591.09 280.91 595.84 286.42C600.84 292.13 601.68 299.37 595.74 304.61C588.63 310.9 578.5 312.3 569.36 311.94C565.19 311.77 565.23 318.16 569.36 318.4C582.56 319.15 604.59 315.32 607.26 299.26C609.78 284.07 594.36 274.11 582.91 267.92C545.15 247.53 502.17 235.21 459.79 229.49C442.717 227.238 425.536 225.903 408.32 225.49C396.99 225.19 384.06 225.07 373.69 230.26C361.22 236.49 360.93 250.17 368.9 260.51C381.05 276.3 401.97 283.83 419.96 290.62C466.33 308.12 515.96 316.62 565.43 317C567.86 317 567.84 313.35 565.43 313.24L565.4 313.29Z" fill="#1A1C3F"/>
<path d="M573.83 303H569.9C516.52 301.6 461.9 290.83 412.81 269.5C403.76 265.56 394.67 261.29 386.81 255.3C380.86 250.78 373.64 244.08 372.3 236.3C370.532 237.615 369.166 239.398 368.355 241.447C367.544 243.496 367.321 245.731 367.71 247.9C368.78 255.9 376.21 262.81 382.31 267.44C390.21 273.44 399.31 277.7 408.31 281.63C457.4 303 512 313.77 565.4 315.17H569.33C587.16 316.32 601.09 308.4 603.25 300.17C603.759 298.278 603.905 296.306 603.68 294.36C597.91 299.8 586.92 303.85 573.83 303Z" fill="white"/>
<path d="M573.83 299.89C538.64 299.89 503.04 294.63 469.05 285.64C450.968 280.898 433.255 274.849 416.05 267.54C408 264.09 399.97 260.44 392.63 255.63C385.29 250.82 377.23 244.42 375.26 235.5C374.72 233.06 371.73 232.7 370.07 234.13C354.95 247.13 372.91 265.06 384.27 272.68C401.84 284.48 423.44 291.76 443.48 298.14C484.09 311.08 526.48 317.38 569.04 318.28C583.78 318.59 608.19 313.81 606.78 294.28C606.761 293.675 606.567 293.088 606.223 292.59C605.879 292.092 605.398 291.703 604.839 291.471C604.28 291.239 603.666 291.173 603.07 291.281C602.474 291.389 601.922 291.666 601.48 292.08C594.08 298.75 583.43 300.32 573.83 299.85C569.83 299.66 569.83 305.85 573.83 306.07C585.16 306.62 597.23 304.27 605.83 296.47L600.53 294.28C601.7 310.48 579.12 312.11 567.8 312.02C550.168 311.824 532.568 310.481 515.11 308C477.88 302.79 441.04 293 406.68 277.62C397.46 273.5 388.26 268.87 380.6 262.17C374.12 256.51 365.76 246.05 374.46 238.57L369.27 237.2C372.01 249.63 384.27 258.32 394.72 264.2C407.89 271.66 422.43 277.2 436.67 282.2C465.933 292.4 496.223 299.374 527 303C542.533 304.989 558.171 306.04 573.83 306.15C577.83 306.11 577.83 299.89 573.83 299.89Z" fill="#1A1C3F"/>
<path d="M514.55 112.21C514.878 110.228 514.681 108.195 513.979 106.312C513.277 104.43 512.095 102.764 510.55 101.48C508.36 99.71 505.08 98.86 502.74 100.48C501.333 101.573 500.378 103.147 500.06 104.9C499.618 106.769 499.562 108.709 499.896 110.6C500.23 112.491 500.946 114.295 502 115.9C503.083 117.499 504.502 118.841 506.159 119.832C507.816 120.824 509.669 121.441 511.59 121.64C512.049 121.729 512.525 121.639 512.92 121.39C513.26 121.03 513.449 120.555 513.45 120.06L514.04 115.27" fill="#1A1C3F"/>
<path d="M516.08 112.63C517.6 106.68 515.08 100.03 509.21 97.4598C502.51 94.5198 497.39 99.6098 496.6 106.11C496.139 109.551 496.767 113.051 498.395 116.117C500.023 119.184 502.571 121.664 505.68 123.21C508.05 124.34 511.68 125.59 514.17 124.21C517.08 122.58 516.82 118.11 516.5 115.3C516.477 114.717 516.25 114.161 515.858 113.729C515.466 113.297 514.935 113.018 514.357 112.939C513.779 112.86 513.192 112.987 512.699 113.298C512.206 113.61 511.838 114.084 511.66 114.64C511.09 116.17 511.18 118.57 510.26 119.87L512.1 118.45C509.66 119.29 506.1 116.02 504.85 114.27C503.299 112.026 502.653 109.28 503.04 106.58C503.56 102.87 506.57 101.65 509.59 104.16C510.695 105.189 511.567 106.442 512.148 107.836C512.729 109.229 513.006 110.731 512.96 112.24C512.963 112.623 513.104 112.991 513.357 113.279C513.61 113.566 513.958 113.752 514.338 113.803C514.717 113.854 515.102 113.767 515.422 113.557C515.742 113.347 515.976 113.028 516.08 112.66V112.63Z" fill="#1A1C3F"/>
<path d="M500.94 101.69C499.992 103.515 499.55 105.561 499.659 107.614C499.768 109.668 500.424 111.655 501.56 113.37C503 115.5 506.5 113.37 505 111.37C504.069 110.191 503.465 108.786 503.251 107.299C503.037 105.812 503.219 104.294 503.78 102.9C504.41 101.26 501.72 100.13 500.94 101.7V101.69Z" fill="white"/>
<path d="M506.69 119.34C507.112 119.34 507.516 119.173 507.814 118.874C508.112 118.576 508.28 118.172 508.28 117.75C508.28 117.328 508.112 116.924 507.814 116.626C507.516 116.328 507.112 116.16 506.69 116.16C506.268 116.16 505.864 116.328 505.566 116.626C505.268 116.924 505.1 117.328 505.1 117.75C505.1 118.172 505.268 118.576 505.566 118.874C505.864 119.173 506.268 119.34 506.69 119.34Z" fill="white"/>
<path d="M530.77 111.86C530.951 109.859 531.654 107.94 532.808 106.296C533.963 104.652 535.529 103.339 537.35 102.49C539.91 101.33 543.3 101.34 545.17 103.49C546.269 104.914 546.794 106.698 546.64 108.49C546.591 110.403 546.155 112.286 545.357 114.025C544.56 115.765 543.418 117.324 542 118.61C540.547 119.881 538.834 120.818 536.98 121.357C535.127 121.896 533.178 122.023 531.27 121.73C530.803 121.703 530.365 121.495 530.05 121.15C529.812 120.716 529.751 120.207 529.88 119.73L530.52 114.95" fill="#1A1C3F"/>
<path d="M532.3 112.28C533.06 109.45 534.88 106.47 537.7 105.28C541.04 103.84 543.76 105.28 543.36 109.15C543.091 111.925 541.758 114.487 539.64 116.3C538.02 117.67 533.69 119.94 531.57 118.53L532.99 120.36C532.35 118.68 533.18 116.18 532.86 114.36C532.52 112.36 529.22 111.91 528.36 113.77C527.27 116.13 525.9 120.3 527.36 122.77C528.82 125.24 532.6 125.29 535.11 125.02C538.63 124.619 541.929 123.1 544.522 120.687C547.116 118.273 548.867 115.092 549.52 111.61C550.73 105.27 547.89 98.27 540.46 98.87C533.82 99.4 529.19 105.57 529.18 111.87C529.183 112.253 529.324 112.622 529.577 112.909C529.83 113.196 530.178 113.382 530.558 113.433C530.937 113.484 531.322 113.397 531.642 113.187C531.962 112.977 532.196 112.658 532.3 112.29V112.28Z" fill="#1A1C3F"/>
<path d="M543.54 105.55C543.733 107.041 543.528 108.558 542.947 109.945C542.366 111.332 541.429 112.541 540.23 113.45C538.23 115.04 541.1 117.96 543.04 116.26C544.572 114.891 545.709 113.137 546.334 111.179C546.958 109.222 547.046 107.133 546.59 105.13C546.24 103.45 543.34 103.79 543.54 105.55Z" fill="white"/>
<path d="M537 120.8C537.422 120.8 537.826 120.633 538.124 120.334C538.423 120.036 538.59 119.632 538.59 119.21C538.59 118.788 538.423 118.384 538.124 118.086C537.826 117.788 537.422 117.62 537 117.62C536.578 117.62 536.174 117.788 535.876 118.086C535.577 118.384 535.41 118.788 535.41 119.21C535.41 119.632 535.577 120.036 535.876 120.334C536.174 120.633 536.578 120.8 537 120.8Z" fill="white"/>
<path d="M520.59 31.8799C475.35 35.4799 425.91 53.7499 405.99 97.8799C404.33 101.55 409.14 104.5 411.44 101.07C436.44 63.6499 477.52 43.0099 521.14 35.9699C523.42 35.5999 522.9 31.7299 520.59 31.9099V31.8799Z" fill="#DDEDE8"/>
<path d="M403 109.45C400.311 112.638 398.132 116.224 396.54 120.08C395.85 121.68 396.61 123.88 398.67 123.79C403.56 123.563 408.372 122.484 412.89 120.6L409.33 117.89C409.11 121.01 408.5 124.37 408.89 127.48C409.24 130.31 413.54 131.48 414.3 128.21C415.06 124.94 414.84 121.29 414.95 117.89C415.03 115.57 412.55 114.63 410.72 115.46C406.671 117.241 402.387 118.434 398 119L401 122C402.24 118.383 403.789 114.88 405.63 111.53C406.49 109.9 404.29 107.94 402.96 109.47L403 109.45Z" fill="#DDEDE8"/>
<path d="M609.41 969.7C604 894 591.52 818.63 576.57 744.23C572.323 723.123 567.8 702.067 563 681.06L555.57 684.19C560.69 694.82 577.04 693.94 581.11 682.96C582.48 679.25 582.29 674.91 582.53 671.02C582.86 665.89 583.13 660.77 583.25 655.63C583.5 644.73 583.58 633.8 583.47 622.9L580.07 626.3L639.66 626.15C640.161 626.142 640.653 626.02 641.1 625.794C641.547 625.568 641.937 625.243 642.24 624.845C642.543 624.446 642.752 623.984 642.851 623.493C642.95 623.002 642.936 622.495 642.81 622.01C637.21 597.09 628.68 573.14 620.91 548.85C613.14 524.56 605.18 500.38 598.34 475.85L594.5 480.85C600.75 481.25 607.3 479.76 613.31 478.23C619.55 476.64 626 474.69 631.6 471.43C632.214 471.066 632.721 470.548 633.072 469.927C633.423 469.306 633.605 468.604 633.6 467.89C628.48 407.11 615.49 347.15 593.89 290.08C592.28 285.82 585.43 287.57 586.96 291.99C606.74 348.84 620.04 407.91 625.4 467.89L627.4 464.35C622.4 467.3 616.67 468.98 611.1 470.44C605.73 471.84 600.04 473.22 594.44 472.89C593.833 472.897 593.236 473.041 592.693 473.313C592.15 473.584 591.677 473.976 591.308 474.458C590.938 474.939 590.684 475.499 590.563 476.093C590.442 476.688 590.458 477.303 590.61 477.89C597.61 502.43 606.69 526.32 615.29 550.33C623.886 574.315 630.953 598.821 636.45 623.7L639.6 619.56L580.01 619.44C579.11 619.453 578.25 619.816 577.613 620.453C576.976 621.09 576.613 621.95 576.6 622.85C576.69 637.66 575.95 652.36 574.85 667.12C574.53 671.5 575.57 679.89 571.28 682.71C570.548 683.18 569.722 683.486 568.86 683.605C567.997 683.724 567.12 683.654 566.287 683.4C565.455 683.146 564.687 682.714 564.039 682.134C563.39 681.554 562.875 680.839 562.53 680.04C560.46 675.74 554.12 678.86 555.1 683.17C572 757 585.58 831.57 596.06 906.51C599.06 927.78 602.14 949.02 605.21 970.26C605.56 972.63 609.58 972.09 609.41 969.7Z" fill="#F7CEBF"/>
<path d="M395.5 235.12C350.33 294.56 308.32 356.45 267 418.6C255.26 436.24 243.593 453.927 232 471.66C230.13 474.52 232.69 477.4 235.5 477.76L284.44 484.08L280.93 478C264.58 504.68 248.75 531.68 232.46 558.4L225.39 570C225.137 570.446 224.988 570.943 224.955 571.455C224.921 571.966 225.003 572.479 225.196 572.954C225.388 573.429 225.685 573.854 226.065 574.198C226.445 574.542 226.898 574.796 227.39 574.94C237.352 577.118 247.61 577.592 257.73 576.34L254.88 571.34C242.97 597.67 231.28 624.12 219.12 650.34C207.25 675.92 194.69 701.17 182.28 726.5C157.16 777.78 132.74 829.4 107.56 880.66C93.3667 909.553 79.22 938.447 65.12 967.34C63.12 971.47 69.19 975.11 71.33 970.97C97.57 920.25 122.85 869.05 147.6 817.59C159.98 791.864 172.25 766.067 184.41 740.2C196.58 714.33 207.81 688.02 219.86 662.09C233.42 632.94 247.22 603.9 260.59 574.66C261.5 572.66 260.49 569.35 257.74 569.66C248.22 570.861 238.564 570.429 229.19 568.38L231.19 573.32C247.6 546.66 264.51 520.32 280.86 493.61L288 482.07C289.78 479.17 287.38 476.33 284.49 475.95L235.55 469.65L239.05 475.75C279.777 413.25 321.357 351.31 363.79 289.93C375.79 272.52 387.48 254.93 399.19 237.28C400.74 234.94 397.11 232.99 395.5 235.12Z" fill="#F7CEBF"/>
<path d="M35.29 973.2C156.52 977 277.79 975.83 399.06 976.44C519.66 977.04 640.24 975.7 760.84 975.44C828.77 975.28 896.84 976.1 964.71 974.24C968.63 974.13 968.64 968.24 964.71 968.14C904.12 966.48 843.43 967.14 782.82 966.99C722.21 966.84 661.57 966.68 600.94 966.25C480.34 965.39 359.76 966.08 239.16 966.25C171.16 966.32 103.23 967.07 35.29 969.2C34.7516 969.2 34.2353 969.414 33.8546 969.795C33.4739 970.175 33.26 970.692 33.26 971.23C33.26 971.768 33.4739 972.285 33.8546 972.665C34.2353 973.046 34.7516 973.26 35.29 973.26V973.2Z" fill="#1A1C3F"/>
<path d="M547.33 973.38C540.78 962.02 531.17 947.38 539.07 934.26C542.07 929.26 547.63 925.1 553.77 926.59C560.14 928.14 564.16 934.59 567.5 939.74C567.942 940.44 568.597 940.98 569.369 941.28C570.14 941.58 570.988 941.625 571.787 941.408C572.586 941.191 573.294 940.723 573.808 940.074C574.321 939.425 574.613 938.628 574.64 937.8C574.91 933.67 575.89 928.94 579.12 926.04C581.73 923.68 586.87 922.54 589.36 925.79C591.85 929.04 598.27 927.43 596.71 922.68C591.39 906.43 590.33 888.12 597.94 872.37C604.27 859.29 617.35 846.48 632.7 846.04C648.76 845.59 660.03 861.55 664.76 875.12C669.76 889.51 670.42 904.93 670.9 920.01C671.03 923.86 676.16 926.59 679 923.36C687.75 913.36 701.79 902.16 715.76 909.11C728.76 915.58 725.2 933.43 722.68 944.75C721.52 949.98 728.73 953.43 731.55 948.49C739.55 934.6 761.31 937.87 763.14 954.49C763.59 958.64 768.14 960.91 771.4 957.92C776.99 952.86 785.02 949.02 792.67 951.28C799.88 953.41 803.49 959.84 802.67 967L804.06 963.65L801 967C797.82 970.36 802 976.48 806.15 973.67C809.01 971.73 811.58 970.57 812.35 967.01C812.904 963.928 812.666 960.756 811.66 957.79C809.784 952.183 805.95 947.439 800.86 944.43C788.8 937.31 774.21 942.43 764.57 951.14L772.83 954.56C771.59 943.19 763.74 932.8 752.16 930.35C740.58 927.9 728.94 933.6 723.16 943.64L732.03 947.38C735.59 931.47 738.03 909.73 720.66 900.77C702.58 891.42 684.06 903.05 672.28 916.71L680.37 920.06C679.28 893.47 676.94 861.25 653.27 844.25C627.9 826.03 598.04 848.58 588.49 873.25C582.1 889.76 583.34 908.33 588.94 924.85L595.67 920.94C591.28 915.33 583.02 914.58 576.99 917.94C569.89 921.94 567.35 930.24 566.99 937.85L574.12 935.92C569.57 929.14 564.12 921.6 555.72 919.59C547.99 917.75 540.57 921.43 535.8 927.46C523.43 943.1 533.66 962.46 544.8 975.36C546 976.75 548.19 974.96 547.3 973.43L547.33 973.38Z" fill="#1A1C3F"/>
<path d="M384.7 556.2C372.29 567.86 366.89 585.07 363.43 601.74C356.282 636.417 355.458 672.1 361 707.07C361.169 708.732 361.633 710.351 362.37 711.85C364.37 715.4 368.85 716.58 372.88 717.24C380.574 718.504 388.363 719.106 396.16 719.04C398.04 719.04 400.06 718.93 401.54 717.78C402.645 716.781 403.46 715.503 403.9 714.08C409.83 698.94 408.68 681.08 417.76 667.6C423.99 658.34 435.59 650.35 446.83 649.31C456.58 648.41 464.34 653.36 469.2 661.62C474.49 670.62 475.65 680.84 476 691.07C476.32 700.07 474.74 712.45 480.14 720.27C484.77 726.96 491.04 724.27 498.63 721.33C506.22 718.39 515.16 716.18 518 708.56C520.84 700.94 521.32 692.65 521.28 684.56C521.16 664.43 518.03 644.44 514.28 624.65C511.5 609.8 508.35 594.95 503.02 580.81C492.887 554.101 475.318 530.851 452.39 513.81" fill="white"/>
<path d="M372.5 562.54C360.09 574.2 354.69 591.41 351.24 608.08C344.077 642.751 343.243 678.432 348.78 713.4C348.948 715.065 349.412 716.688 350.15 718.19C352.15 721.74 356.64 722.92 360.66 723.58C368.358 724.844 376.15 725.446 383.95 725.38C385.82 725.38 387.84 725.27 389.33 724.12C390.43 723.119 391.241 721.841 391.68 720.42C397.62 705.28 396.47 687.42 405.54 673.94C411.77 664.68 423.37 656.69 434.61 655.65C444.37 654.75 452.12 659.7 456.98 667.96C462.28 676.96 463.43 687.17 463.79 697.41C464.1 706.46 462.52 718.79 467.92 726.61C472.55 733.3 478.82 730.61 486.42 727.67C494.02 724.73 502.94 722.52 505.79 714.9C508.64 707.28 509.11 698.98 509.06 690.9C508.94 670.77 505.82 650.78 502.06 630.99C499.28 616.14 496.14 601.28 490.81 587.15C480.665 560.444 463.094 537.197 440.17 520.15" fill="#DDEDE8"/>
<path d="M361.87 600.39C356.64 622.95 353.61 645.59 353.87 668.78C354.051 680.183 354.929 691.564 356.5 702.86C357.06 706.98 357.31 711.62 360.22 714.86C363.13 718.1 367.54 719.44 371.76 720.19C376.918 721.076 382.124 721.654 387.35 721.92C391.99 722.18 397.97 723.12 402.35 721C409.67 717.44 410.83 704.41 412.18 697.39C413.97 688.08 415.24 678.18 420.23 669.93C425.465 661.448 433.778 655.32 443.43 652.83C467.22 647.16 471.84 676.49 471.86 693.5C471.86 702.01 471.25 711.23 475.18 719.07C478.8 726.3 485.34 728.84 492.99 726.77C500.32 724.77 509.32 721.77 515.46 717.23C522.69 711.86 524.21 702.51 524.98 694.05C526.98 671.66 522.91 648.39 518.86 626.44C514.45 602.52 508.94 578.86 496.86 557.51C486.162 538.693 471.766 522.236 454.54 509.13C450.23 505.83 445.85 513.24 450.25 516.47C464.881 527.142 477.326 540.525 486.91 555.89C497.21 572.54 503.37 590.83 507.5 609.89C512.06 630.89 515.84 652.35 516.9 673.89C517.39 683.89 517.83 694.46 514.84 704.11C512.25 712.45 503.43 714.23 496.1 717C493.31 718 489.1 720.27 486.02 719.19C482.21 717.83 481.07 711.79 480.59 708.35C479.44 700.12 480.47 691.66 479.76 683.35C478.47 668.35 472.22 649.9 456.04 645.35C440.72 641.07 424.04 651.54 415.25 663.52C410.44 670.11 407.93 678 406.25 685.89C405.35 690.03 404.67 694.22 403.81 698.37C402.95 702.52 402.37 709.06 399.81 712.48C397.12 716.1 386.38 713.86 382.52 713.48C378.3 713.09 370.61 713.21 367.1 710.23C364.66 708.16 364.65 704.23 364.19 701.23C363.7 698.09 363.27 694.93 362.9 691.77C362.233 686.03 361.727 680.27 361.38 674.49C359.95 650.12 360.77 625.26 365 601.19C365.36 599.19 362.35 598.26 361.87 600.33V600.39Z" fill="#1A1C3F"/>
<path d="M404.25 715L416.49 703.69C419.155 701.416 421.542 698.835 423.6 696C425.11 693.71 426.18 691.16 427.52 688.77C429.6 685.08 432.33 681.77 434.41 678.09C435.41 676.35 436.22 674.52 437.25 672.8C439.738 668.941 442.819 665.498 446.38 662.6C449.91 659.52 454.02 656.5 458.7 656.55C461.79 656.55 464.7 657.98 467.45 659.34C467.45 657.43 465.31 656.34 463.5 655.76C460.635 654.719 457.705 653.864 454.73 653.2C449.01 652.102 443.11 652.38 437.519 654.011C431.927 655.642 426.803 658.579 422.57 662.58C416.86 668.08 413.09 675.37 410.91 682.99C408.73 690.61 408.1 698.59 407.98 706.52" fill="#1A1C3F"/>
<path d="M405.79 716.54C411.31 711.78 417.31 707.38 422.57 702.34C427.83 697.3 429.8 690.79 433.72 685.03C440.92 674.44 450.09 654.77 466.02 661.78C466.51 662.045 467.066 662.163 467.621 662.118C468.176 662.074 468.706 661.869 469.147 661.529C469.589 661.19 469.922 660.729 470.107 660.204C470.292 659.679 470.321 659.111 470.19 658.57C469.53 655.41 467.1 654.04 464.28 652.92C459.815 651.067 455.095 649.904 450.28 649.47C441.58 648.897 432.932 651.191 425.66 656C409 667.14 405 687.82 404.6 706.51C404.5 710.85 411.28 710.85 411.35 706.51C411.61 691.51 413.83 675.05 425.35 664.34C430.56 659.596 437.137 656.621 444.14 655.84C447.379 655.488 450.65 655.592 453.86 656.15C456.02 656.53 464.1 657.76 464.67 660.08L468.84 656.88C462.1 653.31 456.6 651.67 449.63 655.79C443.125 659.7 437.727 665.207 433.95 671.79C429.95 678.95 425.62 685.79 421.42 692.87C416.73 700.73 409.12 707.12 402.67 713.5C400.67 715.5 403.67 718.38 405.74 716.57L405.79 716.54Z" fill="#1A1C3F"/>
<path d="M375 703.4L374.2 705.01C374.01 705.338 373.911 705.711 373.911 706.09C373.911 706.469 374.01 706.842 374.2 707.17C374.487 707.651 374.944 708.008 375.48 708.17C375.797 708.252 376.128 708.261 376.448 708.196C376.769 708.131 377.07 707.994 377.33 707.796C377.59 707.598 377.802 707.343 377.949 707.051C378.096 706.759 378.175 706.437 378.18 706.11V704.28C378.178 703.909 378.054 703.549 377.827 703.254C377.601 702.96 377.285 702.748 376.926 702.65C376.568 702.553 376.188 702.575 375.844 702.714C375.499 702.853 375.21 703.101 375.02 703.42L375 703.4Z" fill="#1A1C3F"/>
<path d="M384 703.13C383.497 703.811 383.139 704.586 382.946 705.41C382.754 706.233 382.731 707.088 382.88 707.92C383.47 710.08 386.82 710.17 387.36 707.92C387.468 707.212 387.492 706.494 387.43 705.78C387.43 705.2 387.43 704.64 387.43 704.06C387.423 703.66 387.288 703.272 387.045 702.954C386.802 702.636 386.464 702.403 386.08 702.29C385.688 702.195 385.275 702.225 384.901 702.376C384.526 702.526 384.208 702.79 383.99 703.13H384Z" fill="#1A1C3F"/>
<path d="M394 704.28C393.464 705.114 392.99 705.987 392.58 706.89C392.478 707.133 392.424 707.394 392.422 707.657C392.421 707.921 392.471 708.182 392.57 708.427C392.67 708.671 392.816 708.893 393.001 709.081C393.187 709.268 393.407 709.418 393.65 709.52C393.893 709.622 394.154 709.676 394.417 709.678C394.681 709.679 394.942 709.629 395.187 709.53C395.431 709.43 395.653 709.284 395.841 709.099C396.028 708.913 396.178 708.693 396.28 708.45C396.43 707.94 396.59 707.45 396.71 706.9C396.83 706.35 396.89 705.68 396.97 705.08C396.969 704.732 396.854 704.394 396.643 704.118C396.432 703.841 396.136 703.642 395.8 703.55C395.461 703.462 395.104 703.486 394.779 703.618C394.455 703.749 394.182 703.981 394 704.28Z" fill="#1A1C3F"/>
<path d="M489.05 708.27L488.73 710.27C488.636 710.62 488.634 710.988 488.726 711.339C488.817 711.689 488.997 712.01 489.25 712.27C489.639 712.64 490.153 712.851 490.69 712.86C491.225 712.855 491.737 712.644 492.12 712.27C492.37 712.009 492.549 711.688 492.64 711.338C492.731 710.988 492.731 710.62 492.64 710.27L492.33 708.27C492.232 707.91 492.018 707.593 491.722 707.366C491.425 707.14 491.063 707.018 490.69 707.018C490.317 707.018 489.955 707.14 489.658 707.366C489.362 707.593 489.148 707.91 489.05 708.27Z" fill="#1A1C3F"/>
<path d="M498.39 704.84C498.09 706.07 497.74 707.3 497.5 708.54C497.416 708.844 497.398 709.162 497.447 709.474C497.496 709.785 497.611 710.082 497.785 710.346C497.959 710.609 498.186 710.832 498.453 711C498.72 711.168 499.02 711.277 499.332 711.319C499.645 711.361 499.963 711.337 500.265 711.246C500.567 711.156 500.846 711.001 501.083 710.794C501.321 710.587 501.511 710.331 501.642 710.044C501.772 709.757 501.84 709.445 501.84 709.13C501.78 707.84 501.63 706.55 501.52 705.26C501.512 704.879 501.369 704.512 501.116 704.227C500.864 703.941 500.518 703.754 500.14 703.7C499.76 703.647 499.373 703.733 499.052 703.942C498.73 704.152 498.495 704.471 498.39 704.84Z" fill="#1A1C3F"/>
<path d="M506.23 703.72L505.41 706.46C505.277 706.955 505.31 707.48 505.503 707.955C505.696 708.43 506.039 708.829 506.48 709.09C506.84 709.295 507.246 709.405 507.66 709.41C508.273 709.395 508.857 709.145 509.291 708.711C509.724 708.277 509.975 707.693 509.99 707.08L510.22 704.25C510.255 703.988 510.238 703.721 510.169 703.465C510.101 703.209 509.983 702.969 509.822 702.758C509.66 702.548 509.46 702.372 509.23 702.239C509.001 702.106 508.748 702.02 508.485 701.985C507.955 701.915 507.418 702.058 506.993 702.384C506.568 702.709 506.29 703.19 506.22 703.72H506.23Z" fill="#1A1C3F"/>
<path d="M386.13 786.24C385.782 786.253 385.442 786.35 385.14 786.525C384.839 786.699 384.585 786.945 384.4 787.24C384.158 787.661 383.963 788.107 383.82 788.57C383.549 789.385 383.431 790.243 383.47 791.1C383.478 791.425 383.555 791.744 383.695 792.037C383.835 792.33 384.035 792.591 384.282 792.801C384.53 793.011 384.819 793.167 385.13 793.259C385.442 793.35 385.769 793.374 386.091 793.331C386.413 793.287 386.722 793.175 386.998 793.004C387.274 792.833 387.51 792.605 387.692 792.336C387.874 792.067 387.998 791.763 388.054 791.443C388.111 791.123 388.099 790.795 388.02 790.48C388.02 790.31 387.93 790.15 387.89 789.98C387.85 789.81 387.84 789.53 387.89 789.84C387.857 789.508 387.857 789.173 387.89 788.84C387.89 789.06 387.89 788.84 387.89 788.75C387.987 788.333 387.952 787.896 387.79 787.5C387.663 787.155 387.434 786.857 387.134 786.645C386.835 786.432 386.477 786.316 386.11 786.31L386.13 786.24Z" fill="#1A1C3F"/>
<path d="M395.64 784C394.47 784.36 394.18 785.3 393.9 786.39C393.623 787.235 393.458 788.112 393.41 789C393.418 789.587 393.608 790.157 393.954 790.632C394.3 791.106 394.784 791.462 395.34 791.65C395.9 791.83 396.506 791.81 397.053 791.593C397.6 791.376 398.055 790.975 398.34 790.46C398.525 790.105 398.604 789.705 398.568 789.307C398.532 788.909 398.382 788.529 398.137 788.213C397.891 787.897 397.561 787.658 397.184 787.525C396.807 787.392 396.399 787.369 396.01 787.46H395.87H397C397.29 787.58 397.36 787.61 397.2 787.53C397.04 787.45 397.04 787.53 397.48 788C398.04 788.79 397.84 788.45 397.87 788C397.9 787.55 397.95 787 397.98 786.53C398.072 785.914 397.93 785.286 397.58 784.77C397.372 784.47 397.079 784.24 396.738 784.11C396.397 783.979 396.025 783.955 395.67 784.04L395.64 784Z" fill="#1A1C3F"/>
<path d="M404.19 783.27C403.5 784.51 402.92 786.12 403.71 787.44C403.927 787.786 404.239 788.061 404.608 788.235C404.978 788.408 405.389 788.472 405.794 788.418C406.198 788.364 406.579 788.195 406.89 787.932C407.202 787.668 407.431 787.32 407.55 786.93C407.709 786.268 407.675 785.573 407.45 784.93C407.45 784.84 407.28 784.28 407.39 784.75C407.365 784.541 407.365 784.329 407.39 784.12C407.377 783.753 407.246 783.401 407.018 783.113C406.79 782.826 406.476 782.619 406.122 782.523C405.767 782.427 405.392 782.447 405.05 782.58C404.708 782.712 404.417 782.951 404.22 783.26L404.19 783.27Z" fill="#1A1C3F"/>
<path d="M286 783.56C286.076 783.908 286.113 784.264 286.11 784.62C286.11 785.08 286.16 785.52 286.19 785.97C286.19 786.501 286.401 787.009 286.776 787.384C287.151 787.759 287.66 787.97 288.19 787.97C288.72 787.97 289.229 787.759 289.604 787.384C289.979 787.009 290.19 786.501 290.19 785.97C290.089 784.672 289.728 783.407 289.13 782.25C288.922 781.896 288.592 781.629 288.202 781.5C287.812 781.371 287.388 781.389 287.01 781.55C286.635 781.713 286.329 782.003 286.146 782.368C285.963 782.734 285.915 783.152 286.01 783.55L286 783.56Z" fill="#1A1C3F"/>
<path d="M295.05 780.65C294.658 781.519 294.57 782.495 294.8 783.42C294.905 784.135 295.055 784.843 295.25 785.54C295.355 785.81 295.513 786.056 295.715 786.264C295.917 786.472 296.158 786.638 296.425 786.751C296.692 786.864 296.979 786.922 297.269 786.923C297.558 786.923 297.845 786.866 298.113 786.754C298.38 786.641 298.622 786.477 298.824 786.269C299.027 786.062 299.186 785.816 299.292 785.547C299.398 785.277 299.449 784.989 299.442 784.699C299.434 784.409 299.369 784.124 299.25 783.86C299.25 783.86 299.05 783.35 299 783.2C298.95 783.05 298.81 782.63 298.73 782.35C298.561 781.598 298.219 780.896 297.73 780.3C297.545 780.118 297.321 779.981 297.075 779.898C296.829 779.816 296.567 779.791 296.31 779.825C296.052 779.858 295.806 779.95 295.59 780.093C295.373 780.236 295.192 780.427 295.06 780.65H295.05Z" fill="#1A1C3F"/>
<path d="M304.5 781.5C304.33 782.59 304.33 783.7 304.5 784.79C304.634 785.246 304.899 785.654 305.261 785.962C305.623 786.271 306.067 786.468 306.539 786.528C307.011 786.588 307.49 786.51 307.918 786.303C308.346 786.095 308.705 785.768 308.95 785.36C309.205 784.912 309.289 784.388 309.188 783.882C309.087 783.377 308.807 782.926 308.4 782.61C307.994 782.288 307.484 782.128 306.967 782.159C306.451 782.19 305.964 782.412 305.6 782.78L305.53 782.86L306.48 782.3C308.24 781.61 308.71 784.3 308.48 783.05C308.43 782.81 308.39 782.57 308.35 782.34L308.11 781.01C307.989 780.582 307.717 780.211 307.344 779.967C306.972 779.723 306.524 779.621 306.082 779.681C305.641 779.74 305.236 779.957 304.942 780.291C304.647 780.626 304.483 781.055 304.48 781.5H304.5Z" fill="#1A1C3F"/>
<path d="M359 542C354.92 518.74 353.31 494.94 355.87 471.47C356.78 463.11 358.29 454.6 362.55 447.35C366 441.48 371.1 436.73 376.63 432.74C399.25 416.45 428.34 412.64 456.14 410.74C472.34 409.61 490.38 409.54 502.52 420.31C508.13 425.31 511.8 432.08 514.6 439.04C523.06 460.11 524.29 483.28 525.36 505.97C525.72 513.64 526.05 521.48 523.84 528.84C520.66 539.39 512.44 547.9 502.84 553.41C493.24 558.92 482.45 561.74 471.64 563.9C451.585 567.91 431.171 569.85 410.72 569.69" fill="white"/>
<path d="M359 559.06C354.92 535.81 353.31 512.06 355.87 488.53C356.78 480.18 358.29 471.67 362.55 464.42C366 458.54 371.1 453.79 376.63 449.81C399.25 433.52 428.34 429.7 456.14 427.76C472.34 426.63 490.38 426.57 502.52 437.34C508.13 442.34 511.8 449.11 514.6 456.06C523.06 477.14 524.29 500.31 525.36 522.99C525.72 530.66 526.05 538.51 523.84 545.86C520.66 556.42 512.44 564.92 502.84 570.43C493.24 575.94 482.45 578.76 471.64 580.93C451.585 584.941 431.171 586.878 410.72 586.71" fill="#DDEDE8"/>
<path d="M361.2 542C359.84 525.46 357.85 509.11 358.01 492.47C358.16 477.19 358.09 458.21 367.85 445.52C376.59 434.15 390.98 427.07 404.32 422.69C418.13 418.15 432.66 416.16 447.1 414.95C460.5 413.83 474.89 412.31 487.93 416.43C503.38 421.31 510.1 435.63 514.23 450.19C518.54 465.4 519.74 481.19 520.46 496.95C521.15 511.95 523.24 527.63 512.58 539.81C501.5 552.47 484.49 556.81 468.58 559.9C449.518 563.533 430.145 565.288 410.74 565.14C404.94 565.14 404.93 574.14 410.74 574.14C429.673 574.243 448.576 572.606 467.21 569.25C483.31 566.35 499.9 562.36 512.88 551.84C525.67 541.48 530.43 527.37 530.01 511.25C529.55 493.64 528.35 475.65 524.59 458.41C521.33 443.41 515.9 425.81 503.25 416.02C491.46 406.89 475.81 406.02 461.48 406.76C430.75 408.33 396.58 412.45 371.7 432.24C365.11 437.48 359.81 443.84 356.7 451.71C353.3 460.34 352.42 469.9 351.77 479.08C350.28 500.08 351.4 522.17 356.83 542.57C357.45 544.91 361.37 544.57 361.17 541.99L361.2 542Z" fill="#1A1C3F"/>
<path d="M369.84 444.37C354.95 446.14 341.66 454.22 328.99 462.24C321.78 466.81 314.3 471.73 310.27 479.24C309.062 481.223 308.499 483.533 308.66 485.85C309.3 490.53 314.2 493.28 318.66 494.71C327.209 497.348 336.261 497.921 345.074 496.382C353.887 494.844 362.21 491.238 369.36 485.86C375.36 481.23 380.75 474.63 380.76 467.02" fill="white"/>
<path d="M379.78 451.82C364.89 453.59 351.59 461.67 338.93 469.69C331.72 474.26 324.24 479.19 320.2 486.69C318.991 488.673 318.431 490.984 318.6 493.3C319.23 497.98 324.13 500.73 328.6 502.16C337.147 504.797 346.198 505.37 355.009 503.832C363.821 502.293 372.142 498.687 379.29 493.31C385.29 488.68 390.69 482.08 390.69 474.47" fill="#DDEDE8"/>
<path d="M369.84 442.13C352.63 443.13 336.99 452.07 322.71 461.05C312.18 467.68 294.25 485 310.39 495.94C322.62 504.24 342.16 502.82 355.33 498.02C368.5 493.22 383.66 482.59 383.95 467.02C384.02 462.91 377.95 463.02 377.63 467.02C376.69 479.41 362.18 487.27 351.63 490.48C341.08 493.69 326.82 494.48 316.79 488.88C304.9 482.2 329.5 466.99 334.79 463.51C345.94 456.12 357.26 449.35 370.47 446.51C372.93 445.98 372.41 441.95 369.87 442.1L369.84 442.13Z" fill="#1A1C3F"/>
<path d="M260 655.34C246.64 662.77 232.69 668.28 217.36 669.67C215.24 669.87 211.6 670.76 209.96 668.86C209.1 667.86 209.05 664.86 208.79 663.71L206.23 652.14C205.23 647.84 203.54 643.03 203.23 638.63C203.03 635.85 202.98 636.75 205.42 634.97C207.3 633.6 209.12 632.12 210.96 630.7L221.26 622.77C222.62 621.77 224.46 619.85 226.01 619.11C228.72 617.81 228.76 618.4 229.44 621.24C230.38 625.16 231.263 629.093 232.09 633.04C232.617 634.825 232.988 636.652 233.2 638.5C233.2 641.31 233.55 640.42 230.53 641.69C214.83 648.27 199.24 655.09 183.61 661.85L188.61 662.5C182.59 656.058 177.158 649.09 172.38 641.68C169.9 637.82 167.58 633.86 165.46 629.8C163.8 626.62 162.46 623.06 159.6 620.8C157.224 619.069 154.388 618.081 151.45 617.96C148.25 617.66 143.53 618.62 142.16 615.03C140.79 611.44 142.34 605.93 142.67 602.26L143.98 587.43H136.28C137.5 598.47 138.693 609.513 139.86 620.56C140.26 624.38 146.64 626.14 147.27 621.56C149.142 608.528 148.295 595.249 144.78 582.56L139.24 586.82C144.452 589.906 148.44 594.695 150.53 600.38C152.21 605.13 153.12 612.26 147.97 615.18L153.76 618.5C153.907 609.527 154.31 600.573 154.97 591.64H147.32C148.56 601.327 149.787 611.017 151 620.71C151.49 624.59 155.75 625.79 158.14 622.65C165.63 612.75 164.44 598.65 156.14 589.65L151.46 595.71C155.196 597.981 157.877 601.642 158.916 605.889C159.955 610.136 159.266 614.621 157 618.36C154.55 622.36 159.88 625.78 163.11 623.07C168.579 618.504 172.276 612.168 173.56 605.16H166C166.851 607.635 166.749 610.339 165.713 612.743C164.678 615.147 162.783 617.078 160.4 618.16C155.84 620.42 159.84 627.27 164.4 625C168.284 623.032 171.34 619.745 173.021 615.728C174.701 611.712 174.896 607.228 173.57 603.08C172.47 599.68 166.75 599.03 166.01 603.08C165.056 608.765 162.075 613.912 157.62 617.57L163.73 622.28C167.012 616.757 167.98 610.16 166.421 603.927C164.863 597.694 160.905 592.329 155.41 589C151.57 586.74 147.77 591.88 150.73 595.05C156.94 601.69 156.99 611.59 151.62 618.71L158.75 620.64C157.51 610.953 156.28 601.263 155.06 591.57C154.45 586.77 147.78 586.57 147.41 591.57C146.743 600.51 146.323 609.463 146.15 618.43C146.163 619.102 146.35 619.76 146.692 620.338C147.035 620.916 147.521 621.396 148.104 621.731C148.687 622.065 149.347 622.243 150.02 622.246C150.692 622.249 151.353 622.079 151.94 621.75C159.24 617.64 160.6 608.75 158.81 601.15C157.703 596.804 155.749 592.718 153.06 589.129C150.371 585.539 147 582.515 143.14 580.23C142.489 579.871 141.747 579.71 141.006 579.767C140.265 579.823 139.556 580.095 138.967 580.548C138.378 581.002 137.934 581.617 137.689 582.319C137.445 583.021 137.41 583.779 137.59 584.5C140.813 595.872 141.66 607.786 140.08 619.5L147.5 620.5C146.333 609.46 145.19 598.417 144.07 587.37C144.07 586.349 143.664 585.37 142.942 584.648C142.22 583.926 141.241 583.52 140.22 583.52C139.199 583.52 138.22 583.926 137.498 584.648C136.776 585.37 136.37 586.349 136.37 587.37L134.83 603.13C134.43 607.29 133.52 611.74 134.27 615.91C135.75 624.15 142.55 625.28 149.62 625.91C154.79 626.33 155.86 628.91 158.05 633.22C160.235 637.573 162.642 641.812 165.26 645.92C170.422 653.935 176.299 661.466 182.82 668.42C184.19 669.89 186.18 669.79 187.82 669.07L214 657.72C218.2 655.89 222.41 654.1 226.59 652.25C230.49 650.53 235.39 649.09 238.72 646.39C244.44 641.75 239.92 631.39 238.62 625.48C237.36 619.77 236.84 609.67 229.02 609.55C225.36 609.49 222.45 611.96 219.71 614.06L207.81 623.17C202.81 627.04 194.04 630.83 195.02 638.23C196.25 647.48 199.02 656.77 200.95 665.9C201.63 669.06 202.02 672.7 204.19 675.26C206.69 678.2 210.49 678.36 214.07 678.26C231.77 677.53 249.83 671.17 263.25 659.48C265.54 657.48 262.62 653.98 260.09 655.39L260 655.34Z" fill="#1A1C3F"/>
<path d="M504.89 473.4C482.99 474.25 460.4 475.46 440.69 485.04C437.29 486.7 433.86 488.72 431.86 491.93C429.99 494.93 429.59 498.59 429.49 502.12C429.248 511.874 431.021 521.573 434.7 530.61C435.373 532.559 436.454 534.342 437.87 535.84C440.68 538.45 444.87 538.68 448.74 538.67C469.438 538.653 490.054 536.076 510.12 531C517.58 529.12 525.61 526.4 529.65 519.86C532.75 514.86 532.83 508.56 532.42 502.68C531.93 495.513 530.849 488.399 529.19 481.41C528.991 479.872 528.288 478.444 527.19 477.35C526.091 476.63 524.813 476.229 523.5 476.19C519.927 475.77 516.347 475.437 512.76 475.19" fill="white"/>
<path d="M499.82 483.77C477.92 484.62 455.33 485.83 435.62 495.41C432.22 497.06 428.79 499.08 426.79 502.3C424.92 505.3 424.51 508.96 424.42 512.49C424.175 522.251 425.949 531.957 429.63 541C430.297 542.949 431.378 544.73 432.8 546.22C435.61 548.84 439.8 549.07 443.67 549.06C464.368 549.026 484.983 546.444 505.05 541.37C512.5 539.48 520.53 536.77 524.58 530.23C527.68 525.23 527.76 518.93 527.35 513.04C526.855 505.877 525.775 498.767 524.12 491.78C524.105 491.058 523.945 490.347 523.647 489.69C523.35 489.032 522.923 488.441 522.391 487.954C521.859 487.466 521.234 487.091 520.553 486.851C519.872 486.612 519.15 486.513 518.43 486.56C514.863 486.127 511.283 485.793 507.69 485.56" fill="#F7CEBF"/>
<path d="M504.89 471.23C483.65 471.51 461.83 471.76 441.97 480.23C433.8 483.71 427.2 488.23 425.88 497.57C424.41 507.95 426.31 519.34 429.88 529.12C431.29 533.01 432.8 536.97 436.18 539.55C439.8 542.31 444.37 542.65 448.77 542.7C460.118 542.735 471.454 541.956 482.69 540.37C493.69 538.89 504.85 537 515.45 533.72C523.62 531.2 531.5 526.89 534.8 518.55C538.8 508.49 536.21 495.86 534.15 485.61C533.35 481.61 532.84 476.52 529.15 474.03C524.96 471.2 517.55 472.03 512.79 471.85C508.44 471.72 508.69 477.96 512.79 478.45C515.79 478.82 522.25 478.45 524.51 480.63C526.77 482.81 526.84 489.06 527.31 492.13C528.44 499.68 530.39 510.03 526.56 517.13C523.17 523.36 515.45 525.48 509.07 527.13C500.619 529.294 492.056 530.997 483.42 532.23C474.503 533.5 465.523 534.281 456.52 534.57C452.73 534.69 448.71 535.03 444.94 534.57C439.48 533.83 438.22 529.15 436.73 524.51C434.24 516.72 432.84 508.13 433.65 499.94C434.5 491.25 442.65 488.13 449.87 485.35C467.42 478.64 486.32 476.89 504.92 475.67C507.69 475.49 507.75 471.29 504.92 471.33L504.89 471.23Z" fill="#1A1C3F"/>
<path d="M423.28 465.77C422.786 465.064 422.12 464.495 421.346 464.116C420.572 463.736 419.715 463.559 418.854 463.601C417.993 463.643 417.157 463.903 416.424 464.355C415.69 464.808 415.083 465.439 414.66 466.19C413.796 467.621 413.324 469.254 413.291 470.925C413.257 472.596 413.664 474.246 414.47 475.71C415.311 477.262 416.688 478.455 418.344 479.068C419.999 479.68 421.821 479.671 423.47 479.04C424.314 478.701 425.074 478.181 425.694 477.516C426.315 476.851 426.781 476.057 427.061 475.192C427.341 474.326 427.426 473.41 427.312 472.507C427.198 471.605 426.886 470.739 426.4 469.97C425.862 469.088 425.003 468.449 424.004 468.186C423.005 467.923 421.943 468.057 421.04 468.56C420.156 469.099 419.515 469.959 419.252 470.961C418.989 471.962 419.124 473.026 419.63 473.93C419.493 473.497 419.526 473.029 419.723 472.62C419.92 472.211 420.266 471.892 420.69 471.73C422.01 471.6 421.2 472.33 421.03 471.59C421.03 471.59 420.78 471.02 420.83 471.17C420.72 470.822 420.72 470.448 420.83 470.1C420.888 469.861 420.993 469.637 421.14 469.44C420.69 469.53 421.22 469.34 421.14 469.44C422.81 469.25 424.46 467.44 423.27 465.73L423.28 465.77Z" fill="#1A1C3F"/>
<path d="M486.37 456.21C486.154 455.558 485.774 454.973 485.266 454.511C484.758 454.048 484.139 453.724 483.47 453.57C482.538 453.343 481.559 453.42 480.674 453.789C479.789 454.157 479.045 454.799 478.55 455.62C477.795 456.782 477.362 458.124 477.293 459.508C477.225 460.892 477.524 462.269 478.16 463.5C478.84 464.813 479.954 465.85 481.312 466.433C482.671 467.017 484.19 467.111 485.61 466.7C486.423 466.444 487.167 466.007 487.785 465.42C488.404 464.834 488.88 464.114 489.179 463.316C489.478 462.518 489.591 461.662 489.51 460.814C489.428 459.966 489.155 459.147 488.71 458.42C488.18 457.523 487.314 456.872 486.304 456.613C485.294 456.353 484.223 456.505 483.325 457.035C482.427 457.566 481.777 458.431 481.517 459.441C481.257 460.451 481.41 461.523 481.94 462.42C481.34 461.52 482.12 459.87 482.86 459.42C483.057 459.303 483.277 459.231 483.505 459.208C483.734 459.186 483.964 459.214 484.18 459.29C484.323 459.285 484.465 459.313 484.595 459.372C484.725 459.431 484.84 459.519 484.93 459.63L484.68 459.38C484.93 460.26 484.49 458.64 484.81 459.58C484.58 458.9 484.94 459.8 484.81 459.4C484.81 459.13 484.81 459.17 484.76 459.54L484.85 459.2C484.42 459.7 485.13 459.02 485.06 458.84L484.54 459.32L484.67 459.26C485.287 459.076 485.809 458.662 486.129 458.104C486.449 457.545 486.543 456.886 486.39 456.26L486.37 456.21Z" fill="#1A1C3F"/>
<path d="M472.23 504.07C474.37 504.68 476.12 506.36 477.87 507.68C479.62 509 481.54 510.56 483.46 511.87C486.6 514.01 489.29 509.06 486.39 506.87C482.44 503.87 477.88 500.09 472.85 499.45C470.16 499.11 469.75 503.37 472.23 504.08V504.07Z" fill="#1A1C3F"/>
<path d="M511.23 494.47C509.38 494.97 507.74 496.8 506.42 498.13C505.1 499.46 503 501.34 502.69 503.36C502.38 505.38 504.45 507.76 506.58 506.36C508.34 505.2 509.14 503.16 510.28 501.45C511.28 499.92 512.88 498.45 513.45 496.71C513.532 496.403 513.532 496.079 513.45 495.771C513.368 495.463 513.206 495.183 512.981 494.957C512.757 494.731 512.477 494.568 512.169 494.485C511.862 494.401 511.538 494.4 511.23 494.48V494.47Z" fill="#1A1C3F"/>
<path d="M405.81 456.83C412.58 457.58 421.3 452.11 424.57 446.29C426.46 442.92 422.12 439.74 419.32 442.29C416.99 444.38 415.18 446.86 412.58 448.68C409.98 450.5 407.34 451.78 404.93 453.68C404.613 453.88 404.368 454.176 404.232 454.526C404.096 454.875 404.076 455.259 404.174 455.621C404.273 455.983 404.485 456.303 404.779 456.535C405.074 456.767 405.435 456.899 405.81 456.91V456.83Z" fill="#1A1C3F"/>
<path d="M496.55 440.05C494.15 438.93 491.43 438.61 488.93 437.7C486.22 436.7 484 434.38 481.24 433.79C480.672 433.645 480.073 433.67 479.519 433.862C478.964 434.054 478.478 434.404 478.121 434.869C477.763 435.334 477.55 435.893 477.507 436.478C477.464 437.063 477.594 437.648 477.88 438.16C479.53 441.16 483.68 442.51 486.88 443.32C490.08 444.13 493.68 444.46 496.58 442.92C496.829 442.772 497.035 442.562 497.178 442.311C497.321 442.059 497.396 441.775 497.396 441.485C497.396 441.196 497.321 440.911 497.178 440.66C497.035 440.408 496.829 440.198 496.58 440.05H496.55Z" fill="#1A1C3F"/>
<path d="M421.62 570.18C432.02 570.18 441.94 574.18 451.93 577.04C469.5 582.14 487.93 584.18 505.06 590.67C503.625 580.702 500.717 571.003 496.43 561.89C496.229 561.366 495.903 560.9 495.48 560.53C494.48 559.83 493.18 560.27 492.07 560.7C476.81 566.6 459.73 565.24 443.85 569.17" fill="#1A1C3F"/>
<path d="M421.62 572.17C429.03 572.5 436.19 575.33 443.16 577.67C449.84 579.91 456.53 581.99 463.37 583.72C476.95 587.16 490.26 591.72 503.96 594.67C504.664 594.849 505.403 594.842 506.104 594.649C506.805 594.455 507.443 594.083 507.956 593.569C508.47 593.055 508.841 592.415 509.032 591.714C509.224 591.013 509.23 590.274 509.05 589.57C507.1 581.45 505.31 573.57 502.19 565.77C499.9 560.06 498.09 555 491 557C482.941 559.298 474.717 560.97 466.4 562C458.56 562.94 450.4 563.53 442.86 565.82C438.4 567.17 440.3 573.44 444.75 572.68C457.44 570.52 470.5 570.37 483.06 567.55C485.921 567.032 488.722 566.224 491.42 565.14C493.64 564.14 492.78 563.45 493.85 565.5C494.754 567.33 495.535 569.218 496.19 571.15C498.46 577.36 500.44 584.15 500.87 590.75L507.11 587.17C493.96 580.01 478.77 579.58 464.37 576.58C449.97 573.58 436.37 568.3 421.58 568.27C419 568.27 419.03 572.13 421.58 572.27L421.62 572.17Z" fill="#1A1C3F"/>
<path d="M327.58 678.49C320.14 681.49 315.58 689.6 314.68 697.34C313.81 704.66 316.16 715.87 324.17 718.4C327.27 719.4 329 715.47 327.17 713.31C325.23 711.156 323.763 708.619 322.864 705.863C321.965 703.107 321.654 700.193 321.95 697.31C322.53 691.1 326.14 686.92 329.83 682.31C331.04 680.78 329.98 677.52 327.61 678.5L327.58 678.49Z" fill="white"/>
<path d="M331.07 725.22C331.454 725.214 331.836 725.167 332.21 725.08C332.46 725 332.69 724.89 332.94 724.8C333.407 724.656 333.805 724.347 334.06 723.93C334.187 723.713 334.269 723.473 334.302 723.224C334.334 722.975 334.317 722.722 334.25 722.48C334.11 722.002 333.789 721.598 333.356 721.353C332.923 721.109 332.411 721.043 331.93 721.17L331.19 721.39C330.836 721.523 330.5 721.702 330.19 721.92C329.857 722.121 329.598 722.424 329.452 722.785C329.306 723.145 329.281 723.543 329.38 723.92C329.469 724.21 329.623 724.477 329.83 724.7C329.995 724.866 330.191 724.998 330.407 725.087C330.624 725.177 330.856 725.222 331.09 725.22H331.07Z" fill="white"/>
<path d="M344.32 731.15C347.21 731.15 347.21 726.66 344.32 726.66C341.43 726.66 341.42 731.15 344.32 731.15Z" fill="white"/>
<path d="M282.2 619.65C281.34 626.52 287.31 633.15 294.2 633.97C301.09 634.79 307.95 630.48 311.2 624.37C316.79 628.81 325.26 628.67 331.2 624.78C337.14 620.89 340.64 613.78 341.02 606.65C341.4 599.52 338.94 592.45 335.02 586.48C337.803 584.382 339.953 581.556 341.232 578.313C342.511 575.071 342.869 571.538 342.267 568.104C341.665 564.671 340.126 561.471 337.82 558.857C335.514 556.243 332.531 554.316 329.2 553.29C328.643 553.074 328.037 553.019 327.45 553.13C326.715 553.439 326.11 553.994 325.74 554.7L281.4 620.32" fill="#1A1C3F"/>
<path d="M280.14 619.65C279.14 627.65 284.96 634.96 292.7 636.71C301.41 638.71 309.7 633.29 314.11 626.1L309.44 627.32C319.31 634.68 333.17 631.25 340.09 621.56C348.2 610.21 345.68 595.5 338.83 584.26L338.15 589.58C341.944 586.46 344.64 582.207 345.842 577.443C347.044 572.68 346.689 567.657 344.83 563.11C342.35 557.29 331.42 545.11 324.34 550.97C322.51 552.5 321.24 555.07 319.93 556.97L313.84 565.97L302.23 583.21C294.303 594.977 286.347 606.73 278.36 618.47C275.82 622.23 281.92 625.76 284.44 622.02C295.507 605.613 306.593 589.207 317.7 572.8L325.48 561.33C327.15 558.86 327.98 556.74 331.21 557.95C333.05 558.63 334.78 560.78 335.85 562.33C340.72 569.39 338.28 578.15 331.94 583.33C331.255 584.017 330.815 584.911 330.69 585.873C330.566 586.835 330.762 587.811 331.25 588.65C336.2 596.44 339.02 606.09 334.67 614.82C330.57 623.07 320.79 626.82 312.89 621.39C312.107 620.94 311.179 620.815 310.305 621.044C309.431 621.272 308.682 621.834 308.22 622.61C305.47 627.53 300.52 631.38 294.62 630.91C291.8 630.647 289.179 629.345 287.266 627.256C285.353 625.168 284.285 622.442 284.27 619.61C284.27 616.88 280.46 617.05 280.14 619.61V619.65Z" fill="#1A1C3F"/>
<path d="M509.42 605.4C504.336 606.127 499.516 608.119 495.403 611.195C491.29 614.27 488.015 618.329 485.88 623C484.52 625.797 483.897 628.895 484.07 632C484.169 633.557 484.619 635.071 485.386 636.428C486.153 637.786 487.218 638.953 488.5 639.84C486.783 641.739 485.612 644.068 485.113 646.579C484.614 649.09 484.805 651.689 485.666 654.1C486.527 656.511 488.025 658.643 490.002 660.271C491.978 661.898 494.359 662.959 496.89 663.34C503.13 664.29 509.16 661.05 514.64 657.93C515.723 657.436 516.65 656.655 517.32 655.67C517.838 654.499 517.991 653.2 517.76 651.94C516.494 636.998 513.325 622.279 508.33 608.14" fill="#1A1C3F"/>
<path d="M509.42 603.55C499.85 603.9 490.51 609.55 485.24 617.55C479.97 625.55 478.45 636.39 486.78 642.82L486.09 637.46C480.47 644.29 479.58 653.86 485.56 660.83C492.02 668.36 501.84 668.07 510.23 664.23C513.69 662.65 518.67 660.67 520.46 657.02C522.33 653.19 520.7 647.67 520.12 643.66C518.39 631.5 515.84 618.77 511.12 607.4C509.73 604.06 504.47 605.23 505.52 608.94C507.52 616.16 509.93 623.22 511.52 630.59C512.25 634.11 512.84 637.67 513.33 641.24C513.76 644.45 515.07 649.4 514.46 652.61C513.93 655.34 510.73 656.26 508.31 657.43C504.73 659.17 500.53 660.72 496.52 659.67C488.86 657.67 486.16 648.4 490.95 642.29C491.305 641.915 491.573 641.465 491.733 640.973C491.893 640.481 491.942 639.96 491.876 639.447C491.81 638.934 491.63 638.442 491.351 638.007C491.072 637.572 490.699 637.204 490.26 636.93C483.72 632.11 489.26 622.18 493.04 617.49C497.46 612.04 503.31 609.08 509.95 607.19C511.95 606.63 511.59 603.49 509.46 603.56L509.42 603.55Z" fill="#1A1C3F"/>
<path d="M385.15 361.92L385.41 361.78C385.83 361.515 386.153 361.122 386.333 360.66C386.513 360.197 386.54 359.689 386.41 359.21C386.287 358.687 386.022 358.208 385.644 357.825C385.267 357.442 384.791 357.171 384.27 357.04C383.864 356.923 383.434 356.918 383.026 357.025C382.617 357.133 382.246 357.348 381.95 357.65C379.36 360.57 382.1 364.54 383.24 367.65C385.24 373.2 387.4 378.71 389.54 384.22C391.02 388.04 397.27 386.28 395.7 382.52C394.13 378.76 392.64 375.11 391.06 371.42C390.33 369.71 389.57 368.01 388.82 366.31C388.07 364.61 385.82 361.31 386.02 359.31L383.63 361.7H384.03L382.03 360.55L382.25 360.94L382.6 358.19L382.38 358.37C380.38 360.07 382.94 363.09 385.1 361.9L385.15 361.92Z" fill="#F7CEBF"/>
<path d="M422.24 350.33C422.36 355.95 422.51 361.58 422.93 367.2C423.31 372.29 423.28 377.91 424.93 382.78C425.104 383.35 425.475 383.84 425.977 384.162C426.479 384.483 427.079 384.615 427.67 384.535C428.261 384.454 428.804 384.166 429.201 383.722C429.599 383.277 429.825 382.706 429.84 382.11C429.97 376.88 428.48 371.45 427.84 366.26C427.2 361.07 426.65 355.66 426.31 350.33C426.14 347.75 422.2 347.69 422.26 350.33H422.24Z" fill="#F7CEBF"/>
<path d="M468.24 349.13C466.72 356.63 464.24 364.08 463.1 371.62C462.977 372.232 463.091 372.868 463.419 373.4C463.747 373.932 464.263 374.32 464.865 374.486C465.467 374.652 466.11 374.584 466.664 374.295C467.217 374.006 467.641 373.519 467.85 372.93C470.42 365.82 471.31 357.75 472.5 350.31C472.94 347.55 468.81 346.31 468.24 349.13Z" fill="#F7CEBF"/>
<path d="M515.92 361.7C512.256 365.129 509.459 369.379 507.76 374.1C506.63 377.1 511.58 378.52 512.58 375.43C513.89 371.427 515.924 367.699 518.58 364.43C518.903 364.064 519.075 363.588 519.059 363.1C519.044 362.612 518.843 362.148 518.498 361.802C518.153 361.457 517.688 361.256 517.2 361.241C516.712 361.225 516.236 361.397 515.87 361.72L515.92 361.7Z" fill="#F7CEBF"/>
<path d="M341.8 377.18C341.733 380.9 343.142 384.496 345.72 387.18C347.56 389.27 350.72 386.12 348.79 384.11C346.883 382.037 345.574 379.487 345 376.73C344.55 374.89 341.88 375.37 341.8 377.16V377.18Z" fill="#F7CEBF"/>
<path d="M540.32 546.63C541.32 555.41 543.32 564.14 544.87 572.84C546.56 582.16 549.22 591.79 549.63 601.25L552.81 597.08C546.668 598.041 540.716 599.961 535.17 602.77L541.29 604.37C536.95 595.37 532.29 586.44 527.73 577.47L526.24 583.14L555.11 570.19C557.44 569.14 559.84 568.19 562.11 567.05C563.45 566.37 563.72 565.83 564.57 566.49C565.16 566.97 565.42 569.17 565.63 569.89L570.26 585.38C571.7 590.23 573.26 595.07 574.6 599.96C575.03 601.53 576.12 604.18 575.52 605.82C574.82 607.73 571.44 609.21 569.81 610.21C560.57 615.89 550.6 620.85 541.81 627.21C541.095 627.628 540.576 628.312 540.366 629.113C540.156 629.914 540.272 630.765 540.69 631.48C541.108 632.195 541.792 632.714 542.593 632.924C543.394 633.135 544.245 633.018 544.96 632.6C551.29 629.6 557.24 625.54 563.28 621.95C568.44 618.88 574.73 616.22 579.19 612.16C583.08 608.64 584.12 604.21 582.92 599.24C581.32 592.61 579.01 586.07 577.06 579.53C574.66 571.45 572.95 553.53 560.56 558.74C547.62 564.22 534.87 570.23 522.04 575.97C519.89 576.97 519.68 579.8 520.56 581.63C524.89 590.7 529.04 599.88 533.56 608.87C534.68 611.11 537.65 611.53 539.68 610.47C544.529 607.99 549.735 606.279 555.11 605.4C556.212 605.09 557.146 604.356 557.708 603.359C558.27 602.362 558.415 601.183 558.11 600.08C554.87 591.49 553.52 582.01 551.46 573.08C549.4 564.15 547.75 554.82 545.07 545.98C544.32 543.49 539.99 543.8 540.3 546.63H540.32Z" fill="#F7CEBF"/>
<path d="M228.46 784.55C228.04 799.29 227.89 814.03 227.73 828.77C227.57 843.51 226.81 858.31 227.66 872.98C227.7 873.607 227.977 874.195 228.435 874.624C228.893 875.054 229.497 875.293 230.125 875.293C230.753 875.293 231.357 875.054 231.815 874.624C232.273 874.195 232.55 873.607 232.59 872.98C233.43 858.31 232.68 843.46 232.52 828.77C232.36 814.08 232.2 799.29 231.79 784.55C231.757 784.131 231.568 783.739 231.259 783.454C230.951 783.168 230.546 783.009 230.125 783.009C229.704 783.009 229.299 783.168 228.991 783.454C228.682 783.739 228.493 784.131 228.46 784.55Z" fill="#F7CEBF"/>
<path d="M260.24 819.32C259.59 829.86 259.72 840.47 259.55 851.03C259.55 853.97 264.16 853.97 264.12 851.03C263.95 840.47 264.12 829.86 263.43 819.32C263.398 818.919 263.216 818.545 262.921 818.271C262.625 817.998 262.237 817.847 261.835 817.847C261.433 817.847 261.045 817.998 260.749 818.271C260.454 818.545 260.272 818.919 260.24 819.32Z" fill="#F7CEBF"/>
<path d="M334.38 817.49C333.15 832.69 333.12 848.05 332.93 863.31L332.66 885.22C332.57 892.71 331.57 900.84 332.93 908.22C333.64 912.1 340.05 912.1 340.77 908.22C342.07 901.15 341.13 893.39 341.04 886.22L340.76 863.31C340.57 848.05 340.55 832.69 339.31 817.49C339.27 816.864 338.993 816.276 338.535 815.846C338.077 815.416 337.473 815.177 336.845 815.177C336.217 815.177 335.613 815.416 335.155 815.846C334.697 816.276 334.42 816.864 334.38 817.49Z" fill="#F7CEBF"/>
<path d="M374.29 840.66C373.37 848.27 373.49 856.17 373.49 863.83C373.49 866.91 378.27 866.92 378.27 863.83C378.27 856.18 378.39 848.27 377.47 840.66C377.47 840.239 377.302 839.834 377.004 839.536C376.706 839.238 376.302 839.07 375.88 839.07C375.458 839.07 375.054 839.238 374.756 839.536C374.458 839.834 374.29 840.239 374.29 840.66Z" fill="#F7CEBF"/>
<path d="M295.93 847.37L295.57 871.76C295.57 874.65 300.11 874.66 300.06 871.76L299.7 847.37C299.665 846.894 299.452 846.449 299.102 846.124C298.752 845.798 298.292 845.618 297.815 845.618C297.338 845.618 296.878 845.798 296.528 846.124C296.178 846.449 295.965 846.894 295.93 847.37Z" fill="#F7CEBF"/>
<path d="M463.71 735.87C461.71 749.68 462.09 764.07 461.83 778C461.56 792.86 461.36 807.73 461.12 822.59C460.66 851.92 459.51 881.52 461.5 910.79C461.5 911.859 461.925 912.884 462.68 913.639C463.436 914.395 464.461 914.82 465.53 914.82C466.599 914.82 467.624 914.395 468.38 913.639C469.135 912.884 469.56 911.859 469.56 910.79C471.56 881.52 470.4 851.92 469.93 822.59C469.7 808.06 469.5 793.52 469.24 778.99C468.99 764.73 469.41 749.99 467.34 735.87C467.08 734.08 463.98 734.08 463.71 735.87Z" fill="#F7CEBF"/>
<path d="M517.6 736.37C515.95 751.78 516.53 767.55 516.3 783.03C516.07 798.51 515.85 814.15 516.3 829.68C516.4 833.46 522.07 833.47 522.17 829.68C522.58 814.15 522.35 798.56 522.17 783.03C521.99 767.5 522.52 751.78 520.87 736.37C520.838 735.969 520.656 735.594 520.361 735.321C520.065 735.048 519.677 734.896 519.275 734.896C518.873 734.896 518.485 735.048 518.189 735.321C517.894 735.594 517.712 735.969 517.68 736.37H517.6Z" fill="#F7CEBF"/>
<path d="M493 789.43L492.92 821.75C492.92 824.22 496.76 824.23 496.76 821.75L496.69 789.43C496.656 788.964 496.446 788.528 496.104 788.21C495.762 787.893 495.312 787.716 494.845 787.716C494.378 787.716 493.928 787.893 493.586 788.21C493.244 788.528 493.034 788.964 493 789.43Z" fill="#F7CEBF"/>
<path d="M426.11 822.53C423.83 833.14 424.34 844.72 424.11 855.53C423.85 867.05 423.21 878.58 424.38 890.06C424.427 890.913 424.798 891.716 425.419 892.303C426.039 892.89 426.861 893.218 427.715 893.218C428.569 893.218 429.391 892.89 430.011 892.303C430.632 891.716 431.003 890.913 431.05 890.06C432.22 878.58 431.58 867.06 431.33 855.53C431.09 844.73 431.6 833.14 429.33 822.53C429.224 822.187 429.011 821.888 428.722 821.675C428.433 821.462 428.084 821.347 427.725 821.347C427.366 821.347 427.017 821.462 426.728 821.675C426.439 821.888 426.226 822.187 426.12 822.53H426.11Z" fill="#F7CEBF"/>
<path d="M399.66 854.92C402.32 854.92 402.32 850.79 399.66 850.79C397 850.79 397 854.92 399.66 854.92Z" fill="#F7CEBF"/>
<path d="M397.83 871.72C400.91 871.72 400.92 866.93 397.83 866.93C394.74 866.93 394.75 871.72 397.83 871.72Z" fill="#F7CEBF"/>
<path d="M408.81 865.33H410C410.557 865.32 411.09 865.098 411.49 864.71C411.781 864.415 411.978 864.04 412.057 863.633C412.136 863.226 412.094 862.804 411.935 862.421C411.776 862.038 411.508 861.711 411.164 861.479C410.819 861.248 410.415 861.123 410 861.12H408.78C408.225 861.129 407.695 861.351 407.3 861.74C407.005 862.033 406.803 862.407 406.721 862.815C406.639 863.223 406.68 863.646 406.838 864.031C406.997 864.415 407.266 864.744 407.612 864.975C407.957 865.207 408.364 865.33 408.78 865.33H408.81Z" fill="#F7CEBF"/>
<path d="M502.73 857.12C505.85 857.12 505.86 852.26 502.73 852.26C499.6 852.26 499.6 857.12 502.73 857.12Z" fill="#F7CEBF"/>
<path d="M518.59 857.91C521.94 857.91 521.95 852.69 518.59 852.69C515.23 852.69 515.22 857.91 518.59 857.91Z" fill="#F7CEBF"/>
<path d="M489.92 758L491.14 757.86C491.487 757.878 491.833 757.802 492.14 757.64C492.455 757.538 492.737 757.355 492.96 757.11C493.195 756.875 493.382 756.596 493.509 756.289C493.637 755.982 493.702 755.653 493.702 755.32C493.702 754.988 493.637 754.658 493.509 754.351C493.382 754.044 493.195 753.765 492.96 753.53L492.44 753.13C492.053 752.9 491.611 752.779 491.16 752.78L489.94 752.64C489.228 752.639 488.545 752.919 488.04 753.42C487.539 753.926 487.258 754.609 487.258 755.32C487.258 756.032 487.539 756.715 488.04 757.22C488.285 757.475 488.581 757.676 488.908 757.81C489.235 757.944 489.587 758.009 489.94 758H489.92Z" fill="#F7CEBF"/>
<path d="M492.36 772.31C495.44 772.31 495.44 767.53 492.36 767.53C489.28 767.53 489.28 772.31 492.36 772.31Z" fill="#F7CEBF"/>
<path d="M236.22 762.12C239.53 762.12 239.54 756.98 236.22 756.98C232.9 756.98 232.9 762.12 236.22 762.12Z" fill="#F7CEBF"/>
<path d="M240.49 775.07C243.19 775.07 243.2 770.87 240.49 770.87C237.78 770.87 237.78 775.07 240.49 775.07Z" fill="#F7CEBF"/>
<path d="M242.93 751.35C245.73 751.35 245.73 747.01 242.93 747.01C240.13 747.01 240.13 751.35 242.93 751.35Z" fill="#F7CEBF"/>
<path d="M248.42 770.22C251.17 770.22 251.17 765.95 248.42 765.95C245.67 765.95 245.66 770.22 248.42 770.22Z" fill="#F7CEBF"/>
<path d="M248.42 818C248.871 818 249.303 817.821 249.622 817.502C249.941 817.183 250.12 816.751 250.12 816.3C250.12 815.849 249.941 815.417 249.622 815.098C249.303 814.779 248.871 814.6 248.42 814.6C247.969 814.6 247.537 814.779 247.218 815.098C246.899 815.417 246.72 815.849 246.72 816.3C246.72 816.751 246.899 817.183 247.218 817.502C247.537 817.821 247.969 818 248.42 818Z" fill="#F7CEBF"/>
<path d="M284.4 834.58C284.866 834.546 285.301 834.337 285.619 833.994C285.937 833.652 286.114 833.202 286.114 832.735C286.114 832.268 285.937 831.818 285.619 831.476C285.301 831.134 284.866 830.924 284.4 830.89C283.934 830.924 283.499 831.134 283.181 831.476C282.863 831.818 282.686 832.268 282.686 832.735C282.686 833.202 282.863 833.652 283.181 833.994C283.499 834.337 283.934 834.546 284.4 834.58Z" fill="#F7CEBF"/>
<path d="M299 829.53C301.93 829.53 301.94 824.96 299 824.96C296.06 824.96 296 829.53 299 829.53Z" fill="#F7CEBF"/>
<path d="M293.55 840.46C293.982 840.46 294.397 840.288 294.703 839.983C295.008 839.677 295.18 839.263 295.18 838.83C295.18 838.398 295.008 837.983 294.703 837.678C294.397 837.372 293.982 837.2 293.55 837.2C293.118 837.2 292.703 837.372 292.397 837.678C292.092 837.983 291.92 838.398 291.92 838.83C291.92 839.263 292.092 839.677 292.397 839.983C292.703 840.288 293.118 840.46 293.55 840.46Z" fill="#F7CEBF"/>
<path d="M271 881.15C273.66 881.15 273.66 877.02 271 877.02C268.34 877.02 268.34 881.15 271 881.15Z" fill="#F7CEBF"/>
<path d="M284.4 894.32C287.52 894.32 287.53 889.46 284.4 889.46C281.27 889.46 281.27 894.32 284.4 894.32Z" fill="#F7CEBF"/>
<path d="M303.92 885.63C306.85 885.63 306.86 881.07 303.92 881.07C300.98 881.07 300.97 885.63 303.92 885.63Z" fill="#F7CEBF"/>
<path d="M304 906.57L304.61 905.96C304.86 905.727 305.045 905.435 305.15 905.11C305.316 904.804 305.396 904.458 305.38 904.11C305.398 903.762 305.318 903.415 305.15 903.11C305.047 902.782 304.861 902.485 304.61 902.25L304.07 901.84C303.667 901.603 303.208 901.478 302.74 901.48L302.03 901.57C301.59 901.696 301.188 901.93 300.86 902.25L300.25 902.86C299.999 903.095 299.813 903.392 299.71 903.72C299.548 904.028 299.468 904.372 299.48 904.72C299.513 905.414 299.785 906.075 300.25 906.59L300.79 907C301.196 907.239 301.659 907.363 302.13 907.36L302.83 907.27C303.27 907.144 303.672 906.91 304 906.59V906.57Z" fill="#F7CEBF"/>
<path d="M55.92 969.82C51.04 961.5 51.25 949.76 58.25 943.12C65.25 936.48 78.99 938.28 82.34 947.32C79.47 938.66 76.65 929.74 77.04 920.62C77.43 911.5 81.69 902 89.8 897.83C100.03 892.54 113.16 897.44 120.8 906.09C128.44 914.74 131.74 926.24 134.69 937.37C137.49 930.57 140.85 923.78 146.31 918.86C151.77 913.94 159.76 911.25 166.66 913.79C174.54 916.69 178.66 925.14 182.08 932.79C179.74 921.41 178.79 909.12 183.67 898.57C188.55 888.02 200.86 880.21 211.9 883.84C217.9 885.84 222.48 890.66 226.38 895.64C237.485 909.859 245.167 926.444 248.83 944.11C251.652 940.564 255.36 937.825 259.579 936.17C263.799 934.515 268.38 934.003 272.86 934.685C277.341 935.366 281.562 937.218 285.098 940.053C288.634 942.888 291.36 946.605 293 950.83C301 939.5 317.73 936.83 330.51 942.22C343.29 947.61 352.51 959.22 358.51 971.76" fill="#34C6A0"/>
<path d="M57.42 969C54.12 961.57 54.08 950.53 61.24 945.17C66.24 941.43 75.89 941.99 78.59 948.4C80.46 952.86 87.66 951.24 86.09 946.33C83.09 936.94 79.63 926.7 81.66 916.74C83.4 908.21 89.22 900.28 98.58 900.1C118.75 899.72 126 923.1 130.11 938.67C131.41 943.6 137.52 942.67 139.19 938.67C142.92 929.81 148.76 918.89 159.49 917.74C169.69 916.66 174.42 927.66 177.81 935.35C180.17 940.72 187.76 936.68 186.76 931.58C184.69 920.94 183.38 908.44 189.23 898.7C194 890.8 204 885.07 212.77 890C221.54 894.93 227.47 906.18 232.08 914.69C237.28 924.422 241.071 934.842 243.34 945.64C244.2 949.64 250.08 951.34 252.78 948.13C263.37 935.53 281.86 938.58 288.28 953.57C290.07 957.74 295.56 956.41 297.67 953.57C304.39 944.5 317.85 943 327.83 946.81C340.34 951.61 347.93 963.06 354.29 974.19C356.92 978.78 365.29 975.64 363.12 970.46C356.79 955.32 344.91 941 328.73 936C314.02 931.45 297.63 935.7 288.28 948.11L298.22 949.41C289.13 927.73 260.62 921.64 244.79 940.18L254.23 942.67C251.367 928.971 246.175 915.864 238.88 903.92C232.36 893.32 223.16 880.11 209.88 878.18C198.32 876.48 187 883.46 181 893C173.31 905.19 174.59 920.62 177.3 934.1L186.3 930.33C181.01 918.5 172.8 906.33 158.08 908.23C143.21 910.17 135.37 923.49 130.14 936.09H139.22C136.04 924.31 132.37 912.09 124.05 902.81C117.15 895.13 106.35 890.1 95.94 891.46C85.3 892.85 77.71 900.99 74.57 910.91C70.63 923.38 74.57 936.44 78.57 948.32L85.68 945.32C81.18 935.08 67.13 932.69 58.28 938.66C47.66 945.81 47.95 960.86 54.4 970.66C54.6466 971.028 55.0239 971.287 55.4552 971.386C55.8865 971.485 56.3393 971.417 56.7216 971.194C57.1038 970.971 57.3868 970.61 57.5128 970.186C57.6388 969.762 57.5985 969.306 57.4 968.91L57.42 969Z" fill="#34C6A0"/>
<path d="M57.42 969C54.12 961.57 54.08 950.53 61.24 945.17C66.24 941.43 75.89 941.99 78.59 948.4C80.46 952.86 87.66 951.24 86.09 946.33C83.09 936.94 79.63 926.7 81.66 916.74C83.4 908.21 89.22 900.28 98.58 900.1C118.75 899.72 126 923.1 130.11 938.67C131.41 943.6 137.52 942.67 139.19 938.67C142.92 929.81 148.76 918.89 159.49 917.74C169.69 916.66 174.42 927.66 177.81 935.35C180.17 940.72 187.76 936.68 186.76 931.58C184.69 920.94 183.38 908.44 189.23 898.7C194 890.8 204 885.07 212.77 890C221.54 894.93 227.47 906.18 232.08 914.69C237.28 924.422 241.071 934.842 243.34 945.64C244.2 949.64 250.08 951.34 252.78 948.13C263.37 935.53 281.86 938.58 288.28 953.57C290.07 957.74 295.56 956.41 297.67 953.57C304.39 944.5 317.85 943 327.83 946.81C340.34 951.61 347.93 963.06 354.29 974.19C356.92 978.78 365.29 975.64 363.12 970.46C356.79 955.32 344.91 941 328.73 936C314.02 931.45 297.63 935.7 288.28 948.11L298.22 949.41C289.13 927.73 260.62 921.64 244.79 940.18L254.23 942.67C251.367 928.971 246.175 915.864 238.88 903.92C232.36 893.32 223.16 880.11 209.88 878.18C198.32 876.48 187 883.46 181 893C173.31 905.19 174.59 920.62 177.3 934.1L186.3 930.33C181.01 918.5 172.8 906.33 158.08 908.23C143.21 910.17 135.37 923.49 130.14 936.09H139.22C136.04 924.31 132.37 912.09 124.05 902.81C117.15 895.13 106.35 890.1 95.94 891.46C85.3 892.85 77.71 900.99 74.57 910.91C70.63 923.38 74.57 936.44 78.57 948.32L85.68 945.32C81.18 935.08 67.13 932.69 58.28 938.66C47.66 945.81 47.95 960.86 54.4 970.66C54.6466 971.028 55.0239 971.287 55.4552 971.386C55.8865 971.485 56.3393 971.417 56.7216 971.194C57.1038 970.971 57.3868 970.61 57.5128 970.186C57.6388 969.762 57.5985 969.306 57.4 968.91L57.42 969Z" fill="#1A1C3F"/>
<path d="M82.28 433.44C89.85 433.15 97.4 433.08 104.96 432.9C105.432 432.898 105.897 432.788 106.32 432.579C106.743 432.371 107.113 432.069 107.402 431.696C107.691 431.323 107.892 430.889 107.988 430.427C108.085 429.965 108.075 429.488 107.96 429.03C105.689 415.665 102.542 402.463 98.54 389.51L96 393.88C102.053 391.76 108.13 389.72 114.23 387.76C120.17 385.87 127.14 382.59 133.38 382.25C140.1 381.89 142.22 389.62 144.57 394.65L153.15 413C153.455 413.515 153.874 413.954 154.375 414.282C154.875 414.611 155.443 414.822 156.037 414.898C156.631 414.974 157.234 414.914 157.802 414.722C158.369 414.53 158.884 414.211 159.31 413.79C162.272 410.299 164.637 406.342 166.31 402.08C168.09 397.42 168.31 392.78 168.93 387.91C169.34 384.8 170.55 384.02 173.52 383.29C176.23 382.62 179.12 382.36 181.89 381.9C184.651 381.278 187.446 380.813 190.26 380.51C193.98 380.34 193.09 383.27 193.26 386.37L194.26 403.66C194.47 407.29 193.86 412.4 196.82 415.17C199.5 417.67 203.51 417.35 206.62 415.96C208.444 414.975 210.192 413.855 211.85 412.61C212.43 412.24 218.15 409.49 217.85 411.35C217.55 413.21 218.32 415.91 220.62 416.23C224.77 416.82 228.24 414.76 228.12 410.23C228.102 409.39 227.785 408.583 227.225 407.956C226.665 407.328 225.9 406.921 225.067 406.808C224.233 406.695 223.387 406.882 222.68 407.337C221.973 407.792 221.452 408.485 221.21 409.29L222.73 408.6L225.5 413.48C225.951 411.371 225.606 409.17 224.531 407.3C223.457 405.43 221.729 404.023 219.68 403.35C214.83 401.55 210.52 403.81 206.53 406.52C205.75 407.05 203.93 408.89 202.85 408.82C202.7 409.76 202.64 409.65 202.66 408.48L202.5 405.6L201.85 394.08C201.54 388.73 202.58 380.57 199.41 375.92C196.24 371.27 190.97 372.15 186.19 372.92C180.19 373.92 172.02 373.92 166.65 376.98C162.27 379.44 161.22 383.98 160.81 388.68C160.17 396.02 158.48 402.39 153.73 408.23L159.89 409.03C156.31 401.49 152.8 393.9 149.15 386.4C146.74 381.4 143.68 376.4 137.98 374.96C131.39 373.27 123.9 376.87 117.74 378.86C109.8 381.434 101.917 384.15 94.09 387.01C93.1873 387.274 92.4227 387.878 91.958 388.696C91.4932 389.513 91.3649 390.48 91.6 391.39C95.7566 404.288 99.2281 417.396 102 430.66L104.14 426.89C96.85 427.94 89.58 429.09 82.27 430.04C80.17 430.31 80.02 433.52 82.27 433.44H82.28Z" fill="#34C6A0"/>
<path d="M664.56 566.59C672.9 564.59 682.05 563.4 690.56 565.12C691.051 565.245 691.563 565.258 692.06 565.157C692.556 565.056 693.023 564.845 693.426 564.538C693.829 564.231 694.157 563.837 694.387 563.386C694.616 562.934 694.74 562.437 694.75 561.93C695.38 551.12 692.37 540.03 687.52 530.44L685.22 536.1L701.09 531.32C702.94 530.76 706.42 529 708.31 530.16C709.86 531.16 710.36 534.43 710.75 536.07C711.75 540.5 718.14 539.27 718.39 535.07C719.289 519.365 718.221 503.61 715.21 488.17L712.44 493L740.8 484.15L755.92 479.43C760.1 478.12 764.82 475.79 769.15 475.29C772.99 474.85 773.66 475.84 774.95 479.2C775.66 481.06 776.34 482.93 777.04 484.8L782.58 499.73L792.97 527.73C794.15 530.92 797.4 531.58 799.97 529.58C804.737 525.906 810.17 523.189 815.97 521.58C818.43 520.9 821.31 519.93 823.78 520.83C826.25 521.73 827.93 524.7 829.41 526.88C833.63 533.07 842.28 548.88 830.68 553.18L834.16 561.44C837.989 559.641 842.017 558.299 846.16 557.44C848.83 556.89 855.89 555.25 858.55 556.57C861.03 557.81 860.29 561.68 860.65 564.15C861.011 566.89 862.157 569.467 863.95 571.57C864.52 572.155 865.237 572.573 866.026 572.781C866.816 572.989 867.646 572.978 868.43 572.75C872.538 571.69 876.552 570.292 880.43 568.57C883.75 567.02 882.16 561.31 878.54 561.57C874.304 561.974 870.11 562.73 866 563.83L871.2 565.94C868.8 562.79 869.95 558.17 868.72 554.52C868.109 552.706 867.012 551.094 865.548 549.86C864.085 548.626 862.311 547.817 860.42 547.52C850.34 545.52 838.59 549.3 829.61 553.6C825.04 555.78 828.28 563.67 833.09 561.86C839.81 559.33 843.99 553.65 845.03 546.58C846.33 537.66 841.86 529.52 836.94 522.44C832.18 515.58 827.54 510.7 818.51 512.2C809.48 513.7 801.21 518.04 794.07 523.64L801.07 525.5L788.35 492C786.23 486.41 784.2 480.79 782.01 475.23C780.7 471.92 779.14 468.67 775.64 467.28C771.27 465.55 766.46 467.77 762.3 469.08L745.3 474.43L710.36 485.43C709.359 485.72 708.51 486.389 707.995 487.294C707.479 488.2 707.337 489.272 707.6 490.28C710.462 505.03 711.47 520.08 710.6 535.08L718.24 534.08C716.96 528.76 714.31 522.67 708.1 522.08C704.48 521.73 700.67 523.44 697.26 524.47L683.16 528.75C682.597 528.917 682.079 529.208 681.645 529.602C681.21 529.997 680.87 530.483 680.649 531.027C680.428 531.571 680.332 532.157 680.369 532.743C680.405 533.328 680.573 533.898 680.86 534.41C685.47 543.31 687.39 552.08 688.12 562.01L691.43 558.71C681.81 559.19 672.71 559.77 663.43 562.62C662.893 562.769 662.437 563.125 662.162 563.609C661.887 564.094 661.816 564.668 661.965 565.205C662.114 565.742 662.469 566.198 662.954 566.473C663.439 566.748 664.013 566.819 664.55 566.67L664.56 566.59Z" fill="#34C6A0"/>
<path d="M624.23 760.62C632.93 762.79 641.09 762.44 649.87 761.17C651.29 760.97 651.87 759.29 651.61 758.11C650.71 753.05 651.02 748.11 655 744.37C659.24 740.37 665.63 740.37 670.43 743.26C671.005 743.601 671.678 743.74 672.341 743.654C673.004 743.569 673.62 743.265 674.09 742.79C679.61 735.73 684.89 728.36 690.73 721.57C698.19 712.9 705.73 721.11 710.4 728.06C710.688 728.53 711.091 728.918 711.572 729.187C712.053 729.456 712.594 729.597 713.145 729.597C713.696 729.597 714.237 729.456 714.718 729.187C715.199 728.918 715.602 728.53 715.89 728.06C722.63 717.63 730.5 706.06 743.97 704.74C747.874 704.451 751.799 704.66 755.65 705.36C758.65 705.84 764.59 705.76 765.96 709.16C766.96 711.56 765.88 716.41 765.75 719.03C765.57 722.79 765.267 726.544 764.84 730.29C764.413 734.037 763.87 737.754 763.21 741.44C762.75 744 761.21 747.36 762.5 749.83C764.42 753.63 769.64 753.2 773.03 752.58C774.91 752.24 777.29 751.16 778.52 752.98C779.45 754.35 779.04 757.42 779.24 759.04C779.74 763.04 781.24 766.04 785.16 767.46C789.08 768.88 791.77 762.56 788.02 760.69C786.17 759.77 786.66 755.69 786.43 753.9C786.28 751.465 785.382 749.136 783.86 747.23C783.011 746.304 781.974 745.569 780.819 745.074C779.664 744.579 778.416 744.336 777.16 744.36C775.25 744.36 769.76 746.64 768.32 745.36L769.27 748.96C771.509 737.548 772.72 725.959 772.89 714.33C772.94 710.08 773.33 705.07 769.59 702.19C766.17 699.55 760.59 699.37 756.52 698.79C746.62 697.38 736.68 697.87 728.26 703.79C720.62 709.17 715.36 717.1 710.4 724.86H715.89C711.1 717.86 703.44 708.93 693.89 711.77C688.75 713.3 685.67 718.06 682.57 722.07L669.85 738.53L673.51 738.05C666.6 733.95 657.51 734.18 651.37 739.76C645.99 744.68 643.82 753.4 647.09 760.04L648.58 756.38C641.11 758.77 632.88 758.54 625.28 756.94C622.88 756.43 621.85 760.03 624.28 760.63L624.23 760.62Z" fill="#34C6A0"/>
</svg>
